<svg xmlns="http://www.w3.org/2000/svg" viewBox="0 0 349.78 324.74"><defs><style>.cls-1{fill:#fff;}.cls-2{fill:#fbb040;}.cls-3{fill:#6d6e71;}.cls-11,.cls-4{fill:#a7a9ac;}.cls-5{fill:#d1d3d4;}.cls-6{fill:#ffe6cb;}.cls-12,.cls-13,.cls-14,.cls-15,.cls-17,.cls-18,.cls-7,.cls-8,.cls-9{fill:none;}.cls-14,.cls-15,.cls-7,.cls-8{stroke:#d1d3d4;}.cls-11,.cls-12,.cls-13,.cls-14,.cls-15,.cls-17,.cls-18,.cls-7,.cls-8,.cls-9{stroke-miterlimit:10;}.cls-7{stroke-width:1.75px;stroke-dasharray:3.49;}.cls-8{stroke-width:2px;stroke-dasharray:4;}.cls-13,.cls-9{stroke:#6d6e71;}.cls-10{fill:#bcbec0;}.cls-11{stroke:#a7a9ac;}.cls-12,.cls-17,.cls-18{stroke:#fff;}.cls-13{stroke-width:1.74px;}.cls-14{stroke-width:1.04px;}.cls-16{fill:#58595b;}.cls-17{stroke-width:4.14px;}.cls-18{stroke-width:1.5px;}.cls-19{fill:#9b8579;}.cls-20{fill:#f7941d;}</style></defs><title>Asset 3</title><g id="Layer_2" data-name="Layer 2"><g id="Layer_1-2" data-name="Layer 1"><path class="cls-1" d="M251.77,110.6v1h-4.13v3h3.53v1h-3.53v3.7h-1.17v-8.6Z"/><path class="cls-1" d="M254.42,118.22h3.72v1h-4.88v-8.6h1.16Z"/><path class="cls-1" d="M264.73,110.6v1H260.6v2.85h3.34v.91H260.6v2.94h4.13v1h-5.3v-8.6Z"/><path class="cls-1" d="M271.7,110.6v1h-4.13v2.85h3.34v.91h-3.34v2.94h4.13v1h-5.3v-8.6Z"/><path class="cls-1" d="M279.23,110.6v1h-2.78v7.62h-1.17v-7.62h-2.79v-1Z"/><path class="cls-1" d="M287.14,116.39c.05.11.09.21.13.32l.12-.32.15-.31,2.91-5.28a.33.33,0,0,1,.16-.17.78.78,0,0,1,.24,0h.86v8.6h-1v-6.32c0-.09,0-.18,0-.27s0-.2,0-.3l-3,5.38a.46.46,0,0,1-.42.27h-.17a.46.46,0,0,1-.42-.27l-3-5.39,0,.3c0,.1,0,.19,0,.28v6.32h-1v-8.6h.85a.7.7,0,0,1,.24,0c.06,0,.11.07.17.17l3,5.29A2.09,2.09,0,0,1,287.14,116.39Z"/><path class="cls-1" d="M300.88,119.2H300a.39.39,0,0,1-.25-.08.5.5,0,0,1-.15-.2l-.8-2.08h-3.86l-.8,2.08a.45.45,0,0,1-.15.19.35.35,0,0,1-.25.09h-.9l3.44-8.6h1.18Zm-5.63-3.2h3.21l-1.35-3.49a6,6,0,0,1-.26-.81c-.05.16-.09.31-.13.45a3.78,3.78,0,0,1-.12.36Z"/><path class="cls-1" d="M302.8,110.64a.59.59,0,0,1,.17.16l5,6.48,0-.31V110.6h1v8.6h-.59a.52.52,0,0,1-.23,0,.65.65,0,0,1-.18-.16l-5-6.48c0,.1,0,.2,0,.3s0,.18,0,.26v6.13h-1v-8.6h.6A.47.47,0,0,1,302.8,110.64Z"/><path class="cls-1" d="M318.11,119.2h-.9a.39.39,0,0,1-.25-.08.48.48,0,0,1-.14-.2l-.81-2.08h-3.86l-.8,2.08a.52.52,0,0,1-.14.19.39.39,0,0,1-.26.09h-.9l3.44-8.6h1.18Zm-5.63-3.2h3.21l-1.35-3.49a6,6,0,0,1-.26-.81c0,.16-.09.31-.13.45a3.78,3.78,0,0,1-.12.36Z"/><path class="cls-1" d="M322.78,118.35a6.4,6.4,0,0,0,.64,0l.55-.1c.17,0,.33-.1.48-.16a3.82,3.82,0,0,0,.46-.21V116h-1.33a.21.21,0,0,1-.18-.07.19.19,0,0,1-.07-.16v-.66H326v3.3a4.72,4.72,0,0,1-.68.41,4.17,4.17,0,0,1-.75.29,4.41,4.41,0,0,1-.85.17,7.74,7.74,0,0,1-1,.06A4.36,4.36,0,0,1,321,119a3.77,3.77,0,0,1-1.34-.9,4,4,0,0,1-.88-1.39,4.86,4.86,0,0,1-.32-1.78,5.09,5.09,0,0,1,.31-1.79,4,4,0,0,1,.88-1.39,3.88,3.88,0,0,1,1.39-.9,5,5,0,0,1,1.82-.32,5.61,5.61,0,0,1,1,.08,4.79,4.79,0,0,1,.81.21,3.72,3.72,0,0,1,.69.35,3.76,3.76,0,0,1,.6.45l-.33.53a.33.33,0,0,1-.27.16.4.4,0,0,1-.21-.07,3.24,3.24,0,0,1-.33-.2,3.24,3.24,0,0,0-1.08-.42,4.37,4.37,0,0,0-.87-.08,3.43,3.43,0,0,0-1.31.24,2.67,2.67,0,0,0-1,.67,3,3,0,0,0-.64,1.07,4.17,4.17,0,0,0-.22,1.41,4.32,4.32,0,0,0,.23,1.45,3,3,0,0,0,.65,1.09,2.91,2.91,0,0,0,1,.68A3.46,3.46,0,0,0,322.78,118.35Z"/><path class="cls-1" d="M333.05,110.6v1h-4.13v2.85h3.35v.91h-3.35v2.94h4.13v1h-5.3v-8.6Z"/><path class="cls-1" d="M336,115.61v3.59h-1.15v-8.6h2.43a5.37,5.37,0,0,1,1.41.16,2.72,2.72,0,0,1,1,.48,1.88,1.88,0,0,1,.57.75,2.64,2.64,0,0,1,.19,1,2.37,2.37,0,0,1-.15.85,2.1,2.1,0,0,1-.41.71,2.74,2.74,0,0,1-.67.54,3.36,3.36,0,0,1-.89.34,1.17,1.17,0,0,1,.38.36l2.51,3.42h-1a.53.53,0,0,1-.47-.25l-2.23-3.07a.62.62,0,0,0-.22-.21.84.84,0,0,0-.36-.06Zm0-.85h1.22a3.06,3.06,0,0,0,.9-.12,1.84,1.84,0,0,0,.65-.35,1.5,1.5,0,0,0,.39-.54,1.67,1.67,0,0,0,.13-.69,1.37,1.37,0,0,0-.5-1.15,2.47,2.47,0,0,0-1.51-.39H336Z"/><path class="cls-1" d="M222.67,179.86a.51.51,0,0,1-.12.13.25.25,0,0,1-.15,0,.42.42,0,0,1-.24-.11l-.34-.22a3.36,3.36,0,0,0-.5-.23,2.43,2.43,0,0,0-.71-.1,2.08,2.08,0,0,0-.69.11,1.51,1.51,0,0,0-.5.28,1.25,1.25,0,0,0-.3.42,1.35,1.35,0,0,0-.1.53,1,1,0,0,0,.18.6,1.39,1.39,0,0,0,.46.4,4,4,0,0,0,.66.29l.76.26c.26.09.51.18.76.29a2.9,2.9,0,0,1,.65.42,1.92,1.92,0,0,1,.47.62,2,2,0,0,1,.18.9,2.85,2.85,0,0,1-.19,1.06,2.51,2.51,0,0,1-.56.86,2.73,2.73,0,0,1-.91.58,3.32,3.32,0,0,1-1.22.21,3.75,3.75,0,0,1-1.52-.31,3.39,3.39,0,0,1-1.17-.82l.33-.55a.43.43,0,0,1,.12-.11.28.28,0,0,1,.15,0,.46.46,0,0,1,.29.13c.11.09.24.19.4.3a2.7,2.7,0,0,0,.59.29,2.57,2.57,0,0,0,1.58,0,1.73,1.73,0,0,0,.55-.32,1.46,1.46,0,0,0,.35-.5,1.66,1.66,0,0,0,.12-.64,1.05,1.05,0,0,0-.18-.64,1.43,1.43,0,0,0-.46-.42,3.28,3.28,0,0,0-.66-.28l-.76-.24a6.83,6.83,0,0,1-.75-.29,2.48,2.48,0,0,1-.66-.42,2,2,0,0,1-.47-.64,2.46,2.46,0,0,1-.17-1,2.42,2.42,0,0,1,.17-.88,2.19,2.19,0,0,1,.52-.76,2.57,2.57,0,0,1,.83-.53,3.1,3.1,0,0,1,1.14-.19,3.68,3.68,0,0,1,1.31.22,3.29,3.29,0,0,1,1,.66Z"/><path class="cls-1" d="M229.92,178.51v1h-4.13v2.86h3.34v.91h-3.34v2.93h4.13v1h-5.3v-8.6Z"/><path class="cls-1" d="M232.43,178.55a1.11,1.11,0,0,1,.17.16l5,6.48c0-.1,0-.21,0-.3v-6.38h1v8.6H238a.52.52,0,0,1-.23-.05.47.47,0,0,1-.19-.16l-5-6.47c0,.1,0,.19,0,.29v6.39h-1v-8.6h.6A.52.52,0,0,1,232.43,178.55Z"/><path class="cls-1" d="M245.07,179.86a.5.5,0,0,1-.11.13.28.28,0,0,1-.16,0,.42.42,0,0,1-.24-.11c-.09-.06-.2-.14-.34-.22a3,3,0,0,0-.5-.23,2.36,2.36,0,0,0-.7-.1,2.08,2.08,0,0,0-.69.11,1.42,1.42,0,0,0-.5.28,1.15,1.15,0,0,0-.31.42,1.56,1.56,0,0,0-.1.53,1,1,0,0,0,.18.6,1.43,1.43,0,0,0,.47.4,3.36,3.36,0,0,0,.66.29l.75.26c.26.09.51.18.76.29a3.22,3.22,0,0,1,.66.42,2.08,2.08,0,0,1,.47.62,2.16,2.16,0,0,1,.17.9,2.85,2.85,0,0,1-.19,1.06,2.37,2.37,0,0,1-.56.86,2.73,2.73,0,0,1-.91.58,3.28,3.28,0,0,1-1.22.21,3.79,3.79,0,0,1-1.52-.31,3.39,3.39,0,0,1-1.17-.82l.34-.55.11-.11a.29.29,0,0,1,.16,0,.44.44,0,0,1,.28.13l.41.3a2.5,2.5,0,0,0,.59.29,2.3,2.3,0,0,0,.84.14,2.4,2.4,0,0,0,.74-.11,1.85,1.85,0,0,0,.55-.32,1.43,1.43,0,0,0,.34-.5,1.66,1.66,0,0,0,.12-.64,1.05,1.05,0,0,0-.18-.64,1.33,1.33,0,0,0-.46-.42,2.85,2.85,0,0,0-.66-.28l-.75-.24a7,7,0,0,1-.76-.29,2.65,2.65,0,0,1-.66-.42,2,2,0,0,1-.46-.64,2.28,2.28,0,0,1-.18-1,2.23,2.23,0,0,1,.18-.88,2.31,2.31,0,0,1,.51-.76,2.69,2.69,0,0,1,.83-.53,3.1,3.1,0,0,1,1.14-.19,3.64,3.64,0,0,1,1.31.22,3.18,3.18,0,0,1,1,.66Z"/><path class="cls-1" d="M255,182.81a5.08,5.08,0,0,1-.3,1.78,4.31,4.31,0,0,1-.87,1.39,4.05,4.05,0,0,1-1.34.9,4.84,4.84,0,0,1-3.46,0,3.85,3.85,0,0,1-2.2-2.29,5.24,5.24,0,0,1,0-3.55,3.9,3.9,0,0,1,2.2-2.3,4.84,4.84,0,0,1,3.46,0,3.93,3.93,0,0,1,1.34.91,4.2,4.2,0,0,1,.87,1.39A5.06,5.06,0,0,1,255,182.81Zm-1.19,0a4.23,4.23,0,0,0-.22-1.42,3,3,0,0,0-.61-1.06,2.52,2.52,0,0,0-1-.67,3.22,3.22,0,0,0-1.26-.24,3.13,3.13,0,0,0-1.25.24,2.64,2.64,0,0,0-1,.67,3,3,0,0,0-.61,1.06,4.69,4.69,0,0,0,0,2.84,2.9,2.9,0,0,0,.61,1.06,2.64,2.64,0,0,0,1,.67,3.31,3.31,0,0,0,1.25.23A3.4,3.4,0,0,0,252,186a2.52,2.52,0,0,0,1-.67,2.9,2.9,0,0,0,.61-1.06A4.19,4.19,0,0,0,253.82,182.81Z"/><path class="cls-1" d="M257.88,183.52v3.59h-1.16v-8.6h2.43a5.23,5.23,0,0,1,1.41.17,2.8,2.8,0,0,1,1,.47,2,2,0,0,1,.58.76,2.55,2.55,0,0,1,.18,1,2.67,2.67,0,0,1-.14.86,2.42,2.42,0,0,1-.42.71,2.22,2.22,0,0,1-.67.53,3.23,3.23,0,0,1-.89.34,1.14,1.14,0,0,1,.39.37l2.51,3.41h-1a.49.49,0,0,1-.46-.25l-2.24-3.07a.73.73,0,0,0-.22-.21.84.84,0,0,0-.36-.06Zm0-.84h1.22a2.65,2.65,0,0,0,.89-.13,1.76,1.76,0,0,0,.65-.35,1.31,1.31,0,0,0,.4-.53,1.93,1.93,0,0,0,.13-.69,1.37,1.37,0,0,0-.51-1.16,2.45,2.45,0,0,0-1.51-.39h-1.27Z"/><path class="cls-1" d="M9.09,169.88H7.92v-8.59H9.09Z"/><path class="cls-1" d="M12.22,161.33a.44.44,0,0,1,.17.15l5,6.48c0-.1,0-.2,0-.3s0-.19,0-.28v-6.09h1v8.59h-.58a.5.5,0,0,1-.23,0,.6.6,0,0,1-.19-.17l-5-6.47c0,.1,0,.2,0,.29v6.39h-1v-8.59H12A.45.45,0,0,1,12.22,161.33Z"/><path class="cls-1" d="M24.87,162.63a.87.87,0,0,1-.12.14.24.24,0,0,1-.15,0,.4.4,0,0,1-.24-.1,2.83,2.83,0,0,0-.34-.23,3,3,0,0,0-.5-.22,2.47,2.47,0,0,0-1.39,0,1.43,1.43,0,0,0-.5.29,1.15,1.15,0,0,0-.31.42,1.3,1.3,0,0,0-.1.52,1,1,0,0,0,.18.6,1.54,1.54,0,0,0,.46.41,4,4,0,0,0,.66.29l.76.25c.26.09.51.19.76.3a2.84,2.84,0,0,1,.66.42,1.91,1.91,0,0,1,.47.61,2.22,2.22,0,0,1,.17.9,2.85,2.85,0,0,1-.19,1.06,2.37,2.37,0,0,1-.56.86,2.58,2.58,0,0,1-.91.58,3.32,3.32,0,0,1-1.22.21,3.78,3.78,0,0,1-1.52-.3,3.52,3.52,0,0,1-1.17-.82l.33-.55a1.36,1.36,0,0,1,.12-.12.42.42,0,0,1,.15,0,.43.43,0,0,1,.29.14,4.55,4.55,0,0,0,.41.29,3.14,3.14,0,0,0,.58.3,2.37,2.37,0,0,0,.85.13,2.17,2.17,0,0,0,.74-.11,1.77,1.77,0,0,0,.55-.32,1.48,1.48,0,0,0,.34-.5,1.62,1.62,0,0,0,.12-.64,1.08,1.08,0,0,0-.18-.64,1.41,1.41,0,0,0-.46-.41,2.86,2.86,0,0,0-.66-.29l-.76-.24c-.25-.08-.51-.18-.75-.28a2.48,2.48,0,0,1-.66-.42,1.92,1.92,0,0,1-.46-.65,2.44,2.44,0,0,1,0-1.84,2.22,2.22,0,0,1,.51-.75,2.42,2.42,0,0,1,.83-.53,3.09,3.09,0,0,1,1.14-.2,3.64,3.64,0,0,1,1.31.23,3,3,0,0,1,1,.66Z"/><path class="cls-1" d="M32.68,161.29v1H29.9v7.62H28.74v-7.62H26v-1Z"/><path class="cls-1" d="M35.18,166.3v3.58H34v-8.59h2.43a5.26,5.26,0,0,1,1.41.16,2.57,2.57,0,0,1,1,.48,2,2,0,0,1,.58.75,2.61,2.61,0,0,1,.18,1,2.37,2.37,0,0,1-.14.85,2.42,2.42,0,0,1-.42.71,2.51,2.51,0,0,1-.66.54,3.15,3.15,0,0,1-.89.33,1.33,1.33,0,0,1,.38.37l2.51,3.41h-1a.51.51,0,0,1-.47-.24l-2.23-3.07a.64.64,0,0,0-.23-.21.84.84,0,0,0-.36-.06Zm0-.85H36.4a3.06,3.06,0,0,0,.9-.12,1.79,1.79,0,0,0,.64-.35,1.41,1.41,0,0,0,.4-.54,1.73,1.73,0,0,0,.13-.69,1.37,1.37,0,0,0-.51-1.16,2.43,2.43,0,0,0-1.51-.39H35.18Z"/><path class="cls-1" d="M44.72,169a2.42,2.42,0,0,0,1-.18,2.12,2.12,0,0,0,.71-.5,2.29,2.29,0,0,0,.44-.78,3.12,3.12,0,0,0,.15-1v-5.22h1.16v5.22a3.85,3.85,0,0,1-.24,1.38,3.07,3.07,0,0,1-.67,1.1,3.13,3.13,0,0,1-1.08.73,3.92,3.92,0,0,1-2.86,0,3.13,3.13,0,0,1-1.08-.73,3.24,3.24,0,0,1-.68-1.1,4.08,4.08,0,0,1-.23-1.38v-5.22h1.15v5.22a3.11,3.11,0,0,0,.16,1,2.25,2.25,0,0,0,.44.77,2,2,0,0,0,.71.51A2.49,2.49,0,0,0,44.72,169Z"/><path class="cls-1" d="M54.52,167.08l.12.32a3.05,3.05,0,0,1,.13-.32,2.2,2.2,0,0,1,.15-.31l2.91-5.29a.31.31,0,0,1,.16-.16.7.7,0,0,1,.24,0h.86v8.59h-1V163.3c0-.1,0-.2,0-.3l-3,5.38a.46.46,0,0,1-.42.27h-.16a.46.46,0,0,1-.42-.27l-3-5.4c0,.11,0,.21,0,.31a2.72,2.72,0,0,1,0,.28v6.31h-1v-8.59H51a.78.78,0,0,1,.24,0,.35.35,0,0,1,.16.16l3,5.3A2.1,2.1,0,0,1,54.52,167.08Z"/><path class="cls-1" d="M66.48,161.29v.94H62.35v2.86h3.34V166H62.35v2.94h4.13v.94h-5.3v-8.59Z"/><path class="cls-1" d="M69,161.33a.44.44,0,0,1,.17.15l5,6.48c0-.1,0-.2,0-.3s0-.19,0-.28v-6.09h1v8.59h-.58a.57.57,0,0,1-.24,0,.7.7,0,0,1-.18-.17l-5-6.47c0,.1,0,.2,0,.29v6.39h-1v-8.59h.6A.45.45,0,0,1,69,161.33Z"/><path class="cls-1" d="M83.08,161.29v1H80.3v7.62H79.14v-7.62H76.35v-1Z"/><path class="cls-1" d="M88.71,162.63a.87.87,0,0,1-.12.14.24.24,0,0,1-.15,0,.4.4,0,0,1-.24-.1,2.83,2.83,0,0,0-.34-.23,3.39,3.39,0,0,0-.5-.22,2.07,2.07,0,0,0-.7-.1,2,2,0,0,0-.69.1,1.48,1.48,0,0,0-.51.29,1.25,1.25,0,0,0-.3.42,1.3,1.3,0,0,0-.1.52,1,1,0,0,0,.18.6,1.54,1.54,0,0,0,.46.41,4,4,0,0,0,.66.29l.76.25c.26.09.51.19.76.3a2.84,2.84,0,0,1,.66.42,1.76,1.76,0,0,1,.46.61,2.06,2.06,0,0,1,.18.9,2.85,2.85,0,0,1-.19,1.06,2.51,2.51,0,0,1-.56.86,2.58,2.58,0,0,1-.91.58,3.32,3.32,0,0,1-1.22.21,3.78,3.78,0,0,1-1.52-.3,3.52,3.52,0,0,1-1.17-.82l.33-.55a.46.46,0,0,1,.12-.12.42.42,0,0,1,.15,0,.43.43,0,0,1,.29.14,4.55,4.55,0,0,0,.41.29,2.85,2.85,0,0,0,.58.3,2.37,2.37,0,0,0,.85.13,2.17,2.17,0,0,0,.74-.11,1.61,1.61,0,0,0,.54-.32,1.37,1.37,0,0,0,.35-.5,1.62,1.62,0,0,0,.12-.64,1.08,1.08,0,0,0-.18-.64,1.52,1.52,0,0,0-.46-.41,2.86,2.86,0,0,0-.66-.29l-.76-.24c-.25-.08-.51-.18-.75-.28a2.48,2.48,0,0,1-.66-.42,1.92,1.92,0,0,1-.46-.65,2.44,2.44,0,0,1,0-1.84,2.22,2.22,0,0,1,.51-.75,2.42,2.42,0,0,1,.83-.53,3.09,3.09,0,0,1,1.14-.2,3.68,3.68,0,0,1,1.31.23,3,3,0,0,1,1,.66Z"/><path class="cls-2" d="M341.13,20.66a12.1,12.1,0,0,0-12.07-12H251.23a12,12,0,0,0-11.93,12V62H341.13Z"/><path class="cls-3" d="M251.37,86.59H329.2a12,12,0,0,0,11.93-12V43H239.3v31.6A12.1,12.1,0,0,0,251.37,86.59Z"/><path class="cls-2" d="M87.71,223.21,77,220.65c-.15-.48-.32-.94-.49-1.41L83.4,209.1,74.33,200,64.65,206a25.51,25.51,0,0,0-2.55-1.16L60,193.61H47.12l-2.65,11a25.12,25.12,0,0,0-2.95,1.3l-9-6.12-9.08,9.07,6.26,10.2a25,25,0,0,0-1,3.07l-9.22,1.77v12.84l9,2.16-5.15,7.61,9.07,9.07L41,250.32A25.85,25.85,0,0,0,44.86,252l1.92,10H59.62l2.47-10.31A25.45,25.45,0,0,0,65.66,250l8.58,5.82,9.08-9.08-5.41-8.82,9.8-1.88Z"/><path class="cls-2" d="M68.27,228.45a15.62,15.62,0,1,0-15.61,15.61A15.61,15.61,0,0,0,68.27,228.45Z"/><circle class="cls-1" cx="53.58" cy="227.81" r="18.95"/><path class="cls-1" d="M53.58,209.36a18.45,18.45,0,1,1-18.45,18.45,18.45,18.45,0,0,1,18.45-18.45m0-1A19.45,19.45,0,1,0,73,227.81a19.48,19.48,0,0,0-19.45-19.45Z"/><path class="cls-1" d="M53.66,245.75a18,18,0,1,1,18-18A18,18,0,0,1,53.66,245.75Z"/><path class="cls-4" d="M53.66,210.28a17.49,17.49,0,1,1-17.49,17.48,17.49,17.49,0,0,1,17.49-17.48m0-1a18.49,18.49,0,1,0,18.48,18.48,18.5,18.5,0,0,0-18.48-18.48Z"/><path class="cls-5" d="M74.36,93.51,63.68,91c-.15-.47-.32-.94-.5-1.4L70.06,79.4,61,70.33l-9.68,5.93a25.51,25.51,0,0,0-2.55-1.16L46.61,63.91H33.77l-2.64,11a25.12,25.12,0,0,0-2.95,1.3l-9-6.12-9.07,9.07,6.25,10.21a23.88,23.88,0,0,0-1,3.07L6.12,94.23v12.83l9,2.17L10,116.83l9.07,9.07,8.62-5.28a24.85,24.85,0,0,0,3.84,1.69l1.92,10H46.27L48.75,122a25.45,25.45,0,0,0,3.57-1.71l8.58,5.82L70,117.05l-5.41-8.82,9.79-1.88Z"/><path class="cls-6" d="M54.93,98.75a15.62,15.62,0,1,0-15.62,15.62A15.62,15.62,0,0,0,54.93,98.75Z"/><path class="cls-1" d="M40.24,117.07A18.95,18.95,0,1,1,59.19,98.12,19,19,0,0,1,40.24,117.07Z"/><path class="cls-1" d="M40.24,79.67A18.45,18.45,0,1,1,21.79,98.12,18.45,18.45,0,0,1,40.24,79.67m0-1A19.45,19.45,0,1,0,59.69,98.12,19.47,19.47,0,0,0,40.24,78.67Z"/><path class="cls-1" d="M40.24,116.1a18,18,0,1,1,18-18A18,18,0,0,1,40.24,116.1Z"/><path class="cls-4" d="M40.24,80.63A17.49,17.49,0,1,1,22.76,98.12,17.48,17.48,0,0,1,40.24,80.63m0-1A18.49,18.49,0,1,0,58.72,98.12,18.5,18.5,0,0,0,40.24,79.63Z"/><path class="cls-5" d="M199.61,280.43l-10.68-2.57c-.15-.47-.32-.94-.5-1.4l6.88-10.15-9.08-9.07-9.67,5.93A23.52,23.52,0,0,0,174,262l-2.15-11.2H159l-2.64,11a23.56,23.56,0,0,0-2.95,1.3l-9-6.13-9.07,9.08,6.25,10.2a24.39,24.39,0,0,0-1,3.07l-9.23,1.77V294l9,2.17-5.16,7.6,9.08,9.08,8.62-5.29a24.44,24.44,0,0,0,3.84,1.69l1.92,10h12.83L174,308.92a23.9,23.9,0,0,0,3.57-1.71l8.59,5.82,9.07-9.07-5.4-8.82,9.79-1.88Z"/><path class="cls-3" d="M180.18,285.66a15.62,15.62,0,1,0-15.62,15.62A15.62,15.62,0,0,0,180.18,285.66Z"/><circle class="cls-1" cx="165.49" cy="285.03" r="18.95"/><path class="cls-1" d="M165.49,266.58A18.45,18.45,0,1,1,147,285a18.45,18.45,0,0,1,18.45-18.45m0-1A19.45,19.45,0,1,0,184.94,285a19.47,19.47,0,0,0-19.45-19.45Z"/><path class="cls-1" d="M165.49,303a18,18,0,1,1,18-18A18,18,0,0,1,165.49,303Z"/><path class="cls-4" d="M165.49,267.55A17.48,17.48,0,1,1,148,285a17.48,17.48,0,0,1,17.48-17.48m0-1A18.48,18.48,0,1,0,184,285a18.5,18.5,0,0,0-18.48-18.48Z"/><circle class="cls-7" cx="164.88" cy="149.44" r="47.85"/><line class="cls-8" x1="166.17" y1="202.64" x2="165.09" y2="242.42"/><rect class="cls-8" x="231.5" y="1" width="117.29" height="93.25" rx="12"/><circle class="cls-8" cx="165.09" cy="284.5" r="39.24"/><circle class="cls-8" cx="53.66" cy="228.03" r="39.24"/><circle class="cls-8" cx="40.24" cy="98.35" r="39.24"/><line class="cls-8" x1="122.09" y1="177.33" x2="86.32" y2="200.64"/><line class="cls-8" x1="116.93" y1="130.39" x2="79.48" y2="114.58"/><line class="cls-8" x1="233.13" y1="93.96" x2="203.37" y2="116.27"/><line class="cls-9" x1="27.97" y1="91.12" x2="53.93" y2="91.12"/><rect class="cls-2" x="32.14" y="87.65" width="6.17" height="6.92"/><line class="cls-9" x1="27.97" y1="99.12" x2="53.93" y2="99.12"/><rect class="cls-3" x="44.14" y="95.65" width="6.17" height="6.92"/><line class="cls-9" x1="27.97" y1="107.12" x2="53.93" y2="107.12"/><rect class="cls-10" x="36.14" y="103.65" width="6.17" height="6.92"/><line class="cls-11" x1="165.49" y1="299.55" x2="165.49" y2="303.23"/><line class="cls-11" x1="180.15" y1="285.66" x2="183.83" y2="285.66"/><line class="cls-11" x1="154.72" y1="295.25" x2="152.12" y2="297.85"/><line class="cls-11" x1="176.08" y1="295.25" x2="178.68" y2="297.85"/><path class="cls-2" d="M165.78,268.5a16.15,16.15,0,0,0-13.95,24.32,13.57,13.57,0,0,1,24.45-11.28h5.37A16.18,16.18,0,0,0,165.78,268.5Z"/><line class="cls-12" x1="165.49" y1="268.5" x2="165.49" y2="275.73"/><line class="cls-12" x1="148.15" y1="285.66" x2="151.83" y2="285.66"/><line class="cls-12" x1="177.1" y1="272.88" x2="171.48" y2="278.49"/><line class="cls-12" x1="153.7" y1="272.88" x2="158.89" y2="278.06"/><path class="cls-3" d="M168.68,285.94l1.6-12.79-7.73,10.31a3.78,3.78,0,1,0,5.9,4.34A3.64,3.64,0,0,0,168.68,285.94Z"/><circle class="cls-13" cx="50.99" cy="225.63" r="10.12"/><rect class="cls-3" x="59.73" y="234.51" width="4.28" height="2.2" transform="translate(-148.48 112.76) rotate(-45)"/><rect class="cls-3" x="57.34" y="231.8" width="4.28" height="2.82" transform="translate(-147.49 110.36) rotate(-45)"/><path class="cls-14" d="M57.28,228.76a7.07,7.07,0,0,1-3.17,3.11"/><path class="cls-14" d="M44,225.54a7,7,0,0,1,7-7"/><path class="cls-3" d="M64.7,235.45l-3,3,1.12,1.12a.63.63,0,0,0,.88,0l2.07-2.07a.74.74,0,0,0,0-1Z"/><polyline class="cls-15" points="309.94 75.29 257.28 70.44 290.28 56.33 309.94 75.29 321.74 53.86"/><circle class="cls-2" cx="257.28" cy="69.37" r="6.13"/><path class="cls-3" d="M162.53,162.46a41.85,41.85,0,0,1-4.15-54.37A41.86,41.86,0,1,0,194.48,179a43.7,43.7,0,0,0,4.15-4.82A41.81,41.81,0,0,1,162.53,162.46Z"/><path class="cls-2" d="M194.48,119.83a41.79,41.79,0,0,0-36.1-11.74,41.86,41.86,0,0,0,40.25,66.12A41.89,41.89,0,0,0,194.48,119.83Z"/><path class="cls-16" d="M155.39,173.4l2.25,1.53c-.14-.35-.27-.71-.38-1.08Z"/><path class="cls-16" d="M153.48,166.3l3.39-.65-1-1.68a9.45,9.45,0,0,1-1,1.25A8.42,8.42,0,0,1,153.48,166.3Z"/><path class="cls-16" d="M152.49,166.88a8.94,8.94,0,0,1-10.34-14.32,9.08,9.08,0,0,1,3.26-2.07l-.46-2.4a13,13,0,0,1-1.81-.64l-4.4,2.69-4.28-4.28-3.05,3,2.72,4.43-5.06,1v7.2l5.51,1.32a13.58,13.58,0,0,0,.85,2.19l-3.21,4.73,5.09,5.09,5.07-3.11a13.33,13.33,0,0,0,2.09.74l1.1,5.71h7.19l1.23-5.11-1.5-.36Z"/><path class="cls-3" d="M157,159.3a42.41,42.41,0,0,1-4.59-7.49l-.3,1.23H145.9l-.49-2.55a9.08,9.08,0,0,0-3.26,2.07,8.94,8.94,0,0,0,10.34,14.32v-.39l1-.19a8.42,8.42,0,0,0,1.32-1.08,9.45,9.45,0,0,0,1-1.25l-1.32-2.15Z"/><path class="cls-4" d="M140.85,146.78a12.9,12.9,0,0,1,1.61-.83l.9-3.78c-.14-.12-.28-.24-.42-.38a7.75,7.75,0,0,1,5.6-13.24,40.92,40.92,0,0,1,2.14-9.13h-6.12l-1.35,5.66a10.82,10.82,0,0,0-1.4.71L138,123.23l-4.41,4.41,2.36,3.85-4.39.84v6.25l4.78,1.14a11.87,11.87,0,0,0,.74,1.9l-2.78,4.11.13.13,2-2Z"/><path class="cls-4" d="M143.14,147.45a13,13,0,0,0,1.81.64l.46,2.4a9,9,0,0,1,6.47.13,43.28,43.28,0,0,1-2.31-6.65,7.72,7.72,0,0,1-6.21-1.8l-.9,3.78a12.9,12.9,0,0,0-1.61.83l-4.36-3-2,2,4.28,4.28Z"/><path class="cls-4" d="M152.14,153l.3-1.23c-.19-.39-.38-.79-.56-1.19a9,9,0,0,0-6.47-.13l.49,2.55Z"/><path class="cls-3" d="M148.67,139.43a41.72,41.72,0,0,1-.13-10.88,7.75,7.75,0,0,0-5.6,13.24c.14.14.28.26.42.38l.66-2.74Z"/><path class="cls-3" d="M144,139.43l-.66,2.74a7.72,7.72,0,0,0,6.21,1.8,44.43,44.43,0,0,1-.9-4.54Z"/><polygon class="cls-5" points="153.99 173.07 155.39 173.41 154.12 172.54 153.99 173.07"/><path class="cls-5" d="M161.69,164.45l-.72.14q-.16.38-.36.75l1.44,2.35a8,8,0,0,1,1.09-1.94C162.65,165.33,162.16,164.9,161.69,164.45Z"/><path class="cls-5" d="M181.8,175a42.42,42.42,0,0,1-5.42-1.55,7.62,7.62,0,0,1-1.64,2.43,7.74,7.74,0,0,1-12.9-3.34l-3.1,3.1-1.1-.75a8.5,8.5,0,0,0,.36.82l-2.78,4.09,4.4,4.4,4.38-2.69a13.44,13.44,0,0,0,1.81.64l.95,4.93H173l1.17-4.87,4,2.71,4.4-4.4L179.76,176c.11-.21.22-.43.31-.65Z"/><path class="cls-5" d="M161.84,172.58a7.8,7.8,0,0,1,.21-4.89l-1.44-2.35q.19-.37.36-.75l.72-.14c-.29-.27-.58-.54-.86-.82a45.06,45.06,0,0,1-3.45-3.89,9,9,0,0,1-1.54,4.23l1,1.68-3.39.65a8.25,8.25,0,0,1-1,.58v5.83l1.5.36.12-.53,1.28.86,1.87.45c.11.37.24.73.38,1.08l1.1.75Z"/><path class="cls-5" d="M152.49,166.88a8.25,8.25,0,0,0,1-.58l-1,.19Z"/><path class="cls-5" d="M154.52,161.82l1.32,2.15a9,9,0,0,0,1.54-4.23c-.11-.15-.23-.29-.35-.44Z"/><path class="cls-3" d="M162.05,167.69l1.78,2.9-2,2a7.74,7.74,0,0,0,12.9,3.34,7.62,7.62,0,0,0,1.64-2.43,42.31,42.31,0,0,1-13.24-7.74A8,8,0,0,0,162.05,167.69Z"/><path class="cls-3" d="M162.05,167.69a7.8,7.8,0,0,0-.21,4.89l2-2Z"/><path class="cls-17" d="M161.81,123.41a39.15,39.15,0,0,1,34.93,35.15"/><path class="cls-17" d="M161.69,131.56a30.19,30.19,0,0,1,26.93,27.09"/><path class="cls-17" d="M161.09,139.47a22,22,0,0,1,19.64,19.76"/><line class="cls-18" x1="288.05" y1="30.11" x2="331.84" y2="30.11"/><line class="cls-18" x1="288.05" y1="24.11" x2="331.84" y2="24.11"/><line class="cls-18" x1="288.05" y1="36.15" x2="331.84" y2="36.15"/><path class="cls-1" d="M279,35.51A14.49,14.49,0,1,0,264.5,50,14.48,14.48,0,0,0,279,35.51Z"/><path class="cls-1" d="M265.36,52.54A17.61,17.61,0,1,1,283,34.93,17.63,17.63,0,0,1,265.36,52.54Z"/><path class="cls-1" d="M265.36,17.82a17.11,17.11,0,1,1-17.11,17.11,17.11,17.11,0,0,1,17.11-17.11m0-1a18.11,18.11,0,1,0,18.11,18.11,18.13,18.13,0,0,0-18.11-18.11Z"/><path class="cls-1" d="M265.36,51.64a16.72,16.72,0,1,1,16.72-16.71A16.73,16.73,0,0,1,265.36,51.64Z"/><path class="cls-4" d="M265.36,18.71a16.22,16.22,0,1,1-16.21,16.22,16.22,16.22,0,0,1,16.21-16.22m0-1a17.22,17.22,0,1,0,17.22,17.22,17.24,17.24,0,0,0-17.22-17.22Z"/><path class="cls-19" d="M262.67,31.09V49.44c.69.06,1.4.11,2.12.11a21.88,21.88,0,0,0,3.27-.24V31.09Z"/><path class="cls-2" d="M269.31,28.31V48.9a16,16,0,0,0,5.39-2.79V28.31Z"/><path class="cls-20" d="M256,34.33V46.4a14.44,14.44,0,0,0,5.4,2.79V34.33Z"/><circle class="cls-2" cx="309.94" cy="75.29" r="6.13"/><circle class="cls-2" cx="290.28" cy="56.33" r="6.13"/><circle class="cls-2" cx="321.74" cy="53.86" r="6.13"/></g></g></svg>