<?xml version="1.0" encoding="UTF-8" standalone="no"?>
<!DOCTYPE svg PUBLIC "-//W3C//DTD SVG 1.1//EN" "http://www.w3.org/Graphics/SVG/1.1/DTD/svg11.dtd">
<svg width="100%" height="100%" viewBox="0 0 1000 1000" version="1.1" xmlns="http://www.w3.org/2000/svg" xmlns:xlink="http://www.w3.org/1999/xlink" xml:space="preserve" xmlns:serif="http://www.serif.com/" style="fill-rule:evenodd;clip-rule:evenodd;stroke-linejoin:round;stroke-miterlimit:1.41421;">
    <g transform="matrix(1.32126,0,0,1.32126,-36.4275,8.62391)">
        <g transform="matrix(6.6632,0,0,6.6632,579.341,690.13)">
            <path d="M0,-49.801C-1.291,-51.143 -2.726,-52.329 -4.279,-53.353L-6.271,-36.802C-6.686,-33.35 -9.621,-30.746 -13.098,-30.746L-18.358,-30.746C-18.127,-30.027 -18.005,-29.22 -18.005,-28.304C-18.005,-24.347 -18.993,-21.354 -20.938,-19.408C-22.885,-17.462 -25.742,-16.475 -29.43,-16.475C-32,-16.475 -34.175,-16.875 -35.894,-17.664C-37.704,-18.493 -39.309,-19.419 -40.665,-20.415L-44.595,-23.304C-47.072,-25.126 -49.854,-25.365 -52.501,-23.983C-53.615,-23.399 -54.533,-22.64 -55.231,-21.727L-63.669,-10.669L-63,-9.848C-61.36,-7.831 -59.346,-5.983 -57.017,-4.353C-54.719,-2.742 -52.186,-1.33 -49.491,-0.155C-46.795,1.018 -43.953,1.938 -41.044,2.579C-38.118,3.225 -35.16,3.552 -32.253,3.552C-26.409,3.552 -21.068,2.555 -16.378,0.592C-11.687,-1.373 -7.638,-4.073 -4.344,-7.436C-1.052,-10.798 1.511,-14.781 3.273,-19.279C5.029,-23.762 5.92,-28.609 5.92,-33.681C5.92,-37.289 5.377,-40.445 4.307,-43.061C3.239,-45.671 1.79,-47.94 0,-49.801" style="fill:rgb(51,71,82);fill-rule:nonzero;"/>
        </g>
        <g transform="matrix(6.6632,0,0,6.6632,319.919,162.011)">
            <path d="M0,11.798L9.562,11.798C9.445,11.311 9.369,10.797 9.369,10.229C9.369,8.738 9.601,7.358 10.057,6.127C10.502,4.927 11.177,3.869 12.066,2.981C12.955,2.092 14.095,1.382 15.455,0.868C16.841,0.346 18.501,0.081 20.39,0.081C22.446,0.081 24.243,0.387 25.732,0.99C27.312,1.631 28.721,2.341 29.921,3.1C31.193,3.902 32.34,4.637 33.366,5.306C35.897,6.957 38.732,6.823 40.696,5.587C41.635,4.998 42.517,4.113 43.39,2.883L50.572,-6.937L49.943,-7.738C48.573,-9.484 46.883,-11.116 44.92,-12.588C42.968,-14.053 40.78,-15.335 38.416,-16.399C36.058,-17.464 33.494,-18.307 30.796,-18.907C28.09,-19.508 25.267,-19.812 22.406,-19.812C16.83,-19.812 11.725,-18.849 7.232,-16.95C2.742,-15.053 -1.135,-12.466 -4.291,-9.264C-7.446,-6.063 -9.905,-2.333 -11.601,1.824C-13.295,5.977 -14.153,10.363 -14.153,14.866C-14.153,18.78 -13.613,22.145 -12.549,24.865C-11.519,27.497 -10.147,29.76 -8.483,31.61L-6.828,17.854C-6.412,14.402 -3.477,11.798 0,11.798" style="fill:rgb(51,71,82);fill-rule:nonzero;"/>
        </g>
        <g transform="matrix(6.6632,0,0,6.6632,508.089,292.31)">
            <path d="M0,21.201L-2.29,21.201C-3.353,21.201 -3.885,20.708 -3.885,19.722L-3.885,18.765C-4.609,19.674 -5.387,20.346 -6.218,20.781C-7.049,21.215 -7.914,21.432 -8.813,21.432C-9.374,21.432 -9.888,21.331 -10.356,21.128C-10.826,20.925 -11.231,20.628 -11.574,20.237C-11.917,19.846 -12.183,19.362 -12.371,18.788C-12.56,18.212 -12.654,17.554 -12.654,16.808C-12.654,16.635 -12.647,16.456 -12.632,16.272C-12.618,16.089 -12.601,15.901 -12.582,15.707L-11.451,6.17L-6.958,6.17L-8.088,15.707C-8.107,15.861 -8.122,16.004 -8.132,16.135C-8.141,16.265 -8.146,16.388 -8.146,16.504C-8.146,17.016 -8.057,17.374 -7.878,17.577C-7.699,17.78 -7.431,17.882 -7.073,17.882C-6.774,17.882 -6.458,17.792 -6.124,17.612C-5.791,17.434 -5.469,17.183 -5.16,16.859C-4.851,16.536 -4.563,16.141 -4.297,15.679C-4.032,15.214 -3.812,14.697 -3.638,14.127L-2.667,6.17L1.827,6.17L0,21.201ZM0.358,-6.413L-12.92,-6.413L-17.135,27.614L-2.405,27.614C0.396,27.614 2.754,25.522 3.088,22.742L5.852,-0.219C6.248,-3.513 3.676,-6.413 0.358,-6.413" style="fill:rgb(51,71,82);fill-rule:nonzero;"/>
        </g>
        <g transform="matrix(6.6632,0,0,6.6632,374.64,371.709)">
            <path d="M0,-2.631L-0.493,1.008L-6.987,1.008L-8.001,9.285L-12.756,9.285L-10.147,-11.835L2.435,-11.835L1.971,-8.196L-5.842,-8.196L-6.537,-2.631L0,-2.631ZM-8.212,-18.329C-11.012,-18.329 -13.371,-16.237 -13.706,-13.457L-16.468,9.504C-16.865,12.798 -14.293,15.698 -10.975,15.698L1.539,15.698L5.754,-18.329L-8.212,-18.329Z" style="fill:rgb(51,71,82);fill-rule:nonzero;"/>
        </g>
    </g>
</svg>
