<svg xmlns="http://www.w3.org/2000/svg" viewBox="0 0 76.7 62.77"><defs><style>.cls-1{fill:#fbb040;}.cls-2{fill:#fff;}.cls-3{fill:#d1d3d4;}.cls-4{fill:#6d6e71;}</style></defs><title>ecosystem</title><g id="Layer_2" data-name="Layer 2"><g id="Layer_1-2" data-name="Layer 1"><path class="cls-1" d="M16.32,38.54l-2.55-.61-.12-.34,1.64-2.42L13.12,33l-2.31,1.42a4.78,4.78,0,0,0-.61-.28l-.52-2.68H6.61L6,34.1a5.51,5.51,0,0,0-.7.31L3.12,33,1,35.12l1.49,2.44a5.65,5.65,0,0,0-.23.73L0,38.71v3.07l2.16.52L.93,44.12,3.1,46.29,5.16,45a5.81,5.81,0,0,0,.92.4l.45,2.39H9.6l.6-2.46a6.65,6.65,0,0,0,.85-.41l2,1.39,2.17-2.17L14,42.06l2.34-.45Z"/><circle class="cls-2" cx="8.16" cy="39.64" r="4.18"/><path class="cls-1" d="M76.7,30.15l-4.55-1.09-.21-.6,2.92-4.32L71,20.28,66.88,22.8a9.77,9.77,0,0,0-1.09-.49l-.91-4.77H59.41l-1.12,4.7a9.42,9.42,0,0,0-1.26.55l-3.85-2.61-3.86,3.87L52,28.39a13.36,13.36,0,0,0-.42,1.31l-3.92.75v5.47l3.84.92-2.19,3.24,3.86,3.86,3.67-2.25a11.86,11.86,0,0,0,1.63.72l.82,4.26h5.47l1.05-4.39a9.24,9.24,0,0,0,1.52-.73L71,44l3.86-3.86-2.3-3.76,4.17-.8Z"/><circle class="cls-2" cx="62.17" cy="32.11" r="7.44"/><path class="cls-3" d="M45.82,49.06l-3.77-.91a5,5,0,0,0-.18-.5l2.43-3.58-3.2-3.21L37.68,43a7.44,7.44,0,0,0-.91-.41l-.76-4H31.48l-.93,3.9A8.15,8.15,0,0,0,29.5,43l-3.19-2.17L23.1,44l2.21,3.61A9.72,9.72,0,0,0,25,48.68l-3.25.63v4.53l3.19.77L23.07,57.3l3.21,3.2,3-1.87a8.16,8.16,0,0,0,1.35.6l.68,3.54H35.9l.87-3.64A8.14,8.14,0,0,0,38,58.52l3,2.06,3.2-3.21-1.91-3.11,3.46-.67Z"/><circle class="cls-2" cx="33.76" cy="50.68" r="6.18"/><path class="cls-4" d="M45,13.81l-5-1.2c-.07-.22-.15-.44-.23-.65L43,7.23,38.71,3,34.2,5.76A11.67,11.67,0,0,0,33,5.22L32,0H26L24.79,5.14a11.34,11.34,0,0,0-1.38.61L19.2,2.89,15,7.12l2.91,4.76a14,14,0,0,0-.46,1.43l-4.3.83v6l4.21,1-2.4,3.54,4.23,4.23,4-2.46a12.47,12.47,0,0,0,1.79.79l.9,4.67h6L33,27.1a11.52,11.52,0,0,0,1.66-.8l4,2.72,4.23-4.24-2.52-4.11L45,19.79Z"/><circle class="cls-2" cx="29.04" cy="15.95" r="8.15"/></g></g></svg>