<svg xmlns="http://www.w3.org/2000/svg" viewBox="0 0 68.25 68.41"><defs><style>.cls-1{fill:#fbb040;}.cls-2{fill:#fff;}.cls-3{fill:#a7a9ac;}.cls-4{fill:none;stroke:#6d6e71;stroke-miterlimit:10;}.cls-5{fill:#6d6e71;}.cls-6{fill:#bcbec0;}</style></defs><title>instrument</title><g id="Layer_2" data-name="Layer 2"><g id="Layer_1-2" data-name="Layer 1"><path class="cls-1" d="M68.25,29.6,57.56,27c-.15-.48-.32-.94-.49-1.41l6.87-10.14L54.87,6.42,45.2,12.35a25.68,25.68,0,0,0-2.56-1.16L40.49,0H27.66L25,11a25.88,25.88,0,0,0-3,1.3L13,6.2,4,15.27l6.26,10.2a26.33,26.33,0,0,0-1,3.08L0,30.32V43.15l9,2.16L3.87,52.92,12.94,62l8.62-5.28A24.85,24.85,0,0,0,25.4,58.4l1.92,10H40.16L42.63,58.1a25.45,25.45,0,0,0,3.57-1.71l8.59,5.82,9.07-9.07-5.41-8.82,9.8-1.88Z"/><path class="cls-1" d="M48.81,34.84A15.62,15.62,0,1,0,33.2,50.45,15.61,15.61,0,0,0,48.81,34.84Z"/><circle class="cls-2" cx="34.12" cy="35.21" r="18.95"/><path class="cls-2" d="M34.12,16.76A18.45,18.45,0,1,1,15.67,35.21,18.45,18.45,0,0,1,34.12,16.76m0-1A19.45,19.45,0,1,0,53.57,35.21,19.47,19.47,0,0,0,34.12,15.76Z"/><path class="cls-2" d="M34.12,53.19a18,18,0,1,1,18-18A18,18,0,0,1,34.12,53.19Z"/><path class="cls-3" d="M34.12,17.72A17.49,17.49,0,1,1,16.64,35.21,17.49,17.49,0,0,1,34.12,17.72m0-1A18.49,18.49,0,1,0,52.61,35.21,18.51,18.51,0,0,0,34.12,16.72Z"/><line class="cls-4" x1="21.86" y1="28.21" x2="47.81" y2="28.21"/><rect class="cls-1" x="26.03" y="24.74" width="6.17" height="6.92"/><line class="cls-4" x1="21.86" y1="36.21" x2="47.81" y2="36.21"/><rect class="cls-5" x="38.03" y="32.74" width="6.17" height="6.92"/><rect class="cls-6" x="30.03" y="40.74" width="6.17" height="6.92"/></g></g></svg>