<svg xmlns="http://www.w3.org/2000/svg" viewBox="0 0 58.71 58.84"><defs><style>.cls-1{fill:#6d6e71;}.cls-2{fill:#fff;}.cls-3,.cls-4{fill:#a7a9ac;}.cls-4{stroke:#a7a9ac;}.cls-4,.cls-6{stroke-miterlimit:10;}.cls-5{fill:#fbb040;}.cls-6{fill:none;stroke:#fff;}</style></defs><title>instrument3</title><g id="Layer_2" data-name="Layer 2"><g id="Layer_1-2" data-name="Layer 1"><path class="cls-1" d="M58.71,25.46l-9.2-2.2c-.12-.41-.27-.81-.42-1.21L55,13.33,47.2,5.52l-8.32,5.1a21.73,21.73,0,0,0-2.2-1L34.83,0h-11L21.52,9.48A22.22,22.22,0,0,0,19,10.6L11.21,5.33,3.4,13.14l5.38,8.77a21.94,21.94,0,0,0-.85,2.64L0,26.08v11L7.76,39,3.33,45.52l7.8,7.81,7.42-4.55a22.19,22.19,0,0,0,3.3,1.46l1.65,8.6h11L36.67,50a22.21,22.21,0,0,0,3.07-1.47l7.39,5,7.8-7.8-4.65-7.59,8.43-1.62Z"/><path class="cls-1" d="M42,30A13.44,13.44,0,1,0,28.56,43.4,13.43,13.43,0,0,0,42,30Z"/><path class="cls-2" d="M29.35,45.79A16.37,16.37,0,1,1,45.72,29.42,16.39,16.39,0,0,1,29.35,45.79Z"/><path class="cls-2" d="M29.35,13.55A15.87,15.87,0,1,1,13.48,29.42,15.87,15.87,0,0,1,29.35,13.55m0-1A16.87,16.87,0,1,0,46.22,29.42,16.89,16.89,0,0,0,29.35,12.55Z"/><path class="cls-2" d="M29.35,45A15.54,15.54,0,1,1,44.89,29.42,15.56,15.56,0,0,1,29.35,45Z"/><path class="cls-3" d="M29.35,14.38a15,15,0,1,1-15,15,15,15,0,0,1,15-15m0-1a16,16,0,1,0,16,16,16.06,16.06,0,0,0-16-16Z"/><line class="cls-4" x1="29.35" y1="41.91" x2="29.35" y2="45.08"/><line class="cls-4" x1="41.96" y1="29.97" x2="45.13" y2="29.97"/><line class="cls-4" x1="20.09" y1="38.22" x2="17.85" y2="40.46"/><line class="cls-4" x1="38.46" y1="38.22" x2="40.7" y2="40.46"/><path class="cls-5" d="M29.61,15.2a13.9,13.9,0,0,0-12,20.93,11.68,11.68,0,0,1,21-9.71h4.62A13.93,13.93,0,0,0,29.61,15.2Z"/><line class="cls-6" x1="29.35" y1="15.2" x2="29.35" y2="21.42"/><line class="cls-6" x1="14.44" y1="29.97" x2="17.6" y2="29.97"/><line class="cls-6" x1="39.34" y1="18.97" x2="34.51" y2="23.8"/><line class="cls-6" x1="19.22" y1="18.97" x2="23.68" y2="23.43"/><path class="cls-1" d="M32.1,30.2l1.37-11-6.64,8.87a3.07,3.07,0,0,0-1,1.29,3.26,3.26,0,0,0,6,2.44A3.1,3.1,0,0,0,32.1,30.2Z"/></g></g></svg>