<svg xmlns="http://www.w3.org/2000/svg" viewBox="0 0 18.22 19.48"><defs><style>.cls-1{fill:#fff;}</style></defs><title>Asset 8</title><g id="Layer_2" data-name="Layer 2"><g id="Layer_1-2" data-name="Layer 1"><path class="cls-1" d="M13.19,14.38A2.75,2.75,0,0,1,11.73,14a2,2,0,0,1-.89-1.23A4.63,4.63,0,0,1,9.34,14a4,4,0,0,1-1.71.37,3,3,0,0,1-1.31-.26,2.71,2.71,0,0,1-.94-.73,3,3,0,0,1-.56-1.09,4.63,4.63,0,0,1-.19-1.37,6,6,0,0,1,.7-2.74A5.73,5.73,0,0,1,6.2,6.94,5.45,5.45,0,0,1,7.43,6,6.44,6.44,0,0,1,9,5.27,7.39,7.39,0,0,1,11,5a8,8,0,0,1,1.58.14,7,7,0,0,1,1.27.41L12.66,10a5.35,5.35,0,0,0-.19,1.29,1.72,1.72,0,0,0,.09.6,1,1,0,0,0,.24.38.8.8,0,0,0,.36.2,2.34,2.34,0,0,0,.47.05,1.58,1.58,0,0,0,1-.32,2.74,2.74,0,0,0,.78-.89A5.22,5.22,0,0,0,15.91,10a7.22,7.22,0,0,0,.19-1.73,7.25,7.25,0,0,0-.48-2.74,5.46,5.46,0,0,0-1.36-2,5.71,5.71,0,0,0-2.08-1.2,8.32,8.32,0,0,0-2.65-.4A7.18,7.18,0,0,0,4.27,4.13,7.48,7.48,0,0,0,2.72,6.56a8.2,8.2,0,0,0-.56,3,9.06,9.06,0,0,0,.61,3.46,7.06,7.06,0,0,0,1.68,2.5A7,7,0,0,0,7,17.05a9.28,9.28,0,0,0,3.12.51,13.37,13.37,0,0,0,1.73-.11,11.54,11.54,0,0,0,1.48-.27,10.92,10.92,0,0,0,1.22-.4,6.91,6.91,0,0,0,1-.47.87.87,0,0,1,.41-.13.49.49,0,0,1,.49.38l.41,1.07A11.48,11.48,0,0,1,13.9,19a13,13,0,0,1-3.81.52,11.39,11.39,0,0,1-4-.69,9.24,9.24,0,0,1-3.2-2A9,9,0,0,1,.76,13.72,10.67,10.67,0,0,1,0,9.59,9.55,9.55,0,0,1,1.27,4.82,9.64,9.64,0,0,1,2.75,2.87,9.5,9.5,0,0,1,4.67,1.34,9.71,9.71,0,0,1,7,.35,9.67,9.67,0,0,1,12.8.57,8.55,8.55,0,0,1,15.57,2.2a7.83,7.83,0,0,1,2.65,6,7.56,7.56,0,0,1-.38,2.41,6.1,6.1,0,0,1-1.06,1.95,5,5,0,0,1-1.59,1.3A4.28,4.28,0,0,1,13.19,14.38Zm-5-1.92a2.3,2.3,0,0,0,.63-.1A1.78,1.78,0,0,0,9.46,12a2.58,2.58,0,0,0,.52-.66,3.74,3.74,0,0,0,.4-1L11.26,7a4.18,4.18,0,0,0-.8-.07,3.15,3.15,0,0,0-1.39.32A3.67,3.67,0,0,0,8,8.09a4.27,4.27,0,0,0-1,2.75A1.89,1.89,0,0,0,7.25,12,1.17,1.17,0,0,0,8.22,12.46Z"/></g></g></svg>