<svg xmlns="http://www.w3.org/2000/svg" viewBox="0 0 65.35 65.35"><defs><style>.cls-1{fill:#6d6e71;}.cls-2{fill:#fff;}.cls-3,.cls-4{fill:#a7a9ac;}.cls-4{stroke:#a7a9ac;}.cls-4,.cls-6{stroke-miterlimit:10;stroke-width:1.68px;}.cls-5{fill:#fbb040;}.cls-6{fill:none;stroke:#fff;}</style></defs><title>reaction-time</title><g id="Layer_2" data-name="Layer 2"><g id="Layer_1-2" data-name="Layer 1"><path class="cls-1" d="M57.36,33.74A26.24,26.24,0,1,0,31.12,60,26.24,26.24,0,0,0,57.36,33.74Z"/><path class="cls-2" d="M32.68,64.51A31.84,31.84,0,1,1,64.51,32.68,31.87,31.87,0,0,1,32.68,64.51Z"/><path class="cls-2" d="M32.68,1.68a31,31,0,1,1-31,31,31,31,0,0,1,31-31m0-1.68A32.68,32.68,0,1,0,65.35,32.68,32.72,32.72,0,0,0,32.68,0Z"/><path class="cls-2" d="M32.68,62.89A30.21,30.21,0,1,1,62.89,32.68,30.24,30.24,0,0,1,32.68,62.89Z"/><path class="cls-3" d="M32.68,3.31A29.37,29.37,0,1,1,3.31,32.68,29.37,29.37,0,0,1,32.68,3.31m0-1.68A31.05,31.05,0,1,0,63.73,32.68a31.09,31.09,0,0,0-31-31Z"/><line class="cls-4" x1="32.68" y1="52.03" x2="32.68" y2="58.21"/><line class="cls-4" x1="51.57" y1="35.42" x2="57.75" y2="35.42"/><line class="cls-4" x1="19.63" y1="46.49" x2="15.25" y2="50.87"/><line class="cls-4" x1="45.43" y1="46.49" x2="49.8" y2="50.87"/><path class="cls-5" d="M33.17,4.91A27.13,27.13,0,0,0,9.73,45.77a22.8,22.8,0,0,1,41.08-19h9A27.17,27.17,0,0,0,33.17,4.91Z"/><line class="cls-6" x1="32.68" y1="4.91" x2="32.68" y2="17.05"/><line class="cls-6" x1="3.55" y1="28.7" x2="9.73" y2="28.7"/><line class="cls-6" x1="52.18" y1="12.26" x2="42.74" y2="21.7"/><line class="cls-6" x1="12.88" y1="12.26" x2="21.59" y2="20.98"/><path class="cls-1" d="M38.05,34.2l2.67-21.48-13,17.33a6.32,6.32,0,0,0,1.63,10.81,6.33,6.33,0,0,0,8.68-6.66Z"/></g></g></svg>