<svg xmlns="http://www.w3.org/2000/svg" viewBox="0 0 83.72 83.71"><defs><style>.cls-1{fill:#6d6e71;}.cls-2{fill:#fbb040;}.cls-3{fill:#58595b;}.cls-4{fill:#a7a9ac;}.cls-5{fill:#d1d3d4;}.cls-6{fill:none;stroke:#fff;stroke-miterlimit:10;stroke-width:4.14px;}</style></defs><title>sensor</title><g id="Layer_2" data-name="Layer 2"><g id="Layer_1-2" data-name="Layer 1"><path class="cls-1" d="M39.51,54.88A41.87,41.87,0,0,1,35.36.51,41.83,41.83,0,1,0,75.61,66.63,41.82,41.82,0,0,1,39.51,54.88Z"/><path class="cls-2" d="M71.46,12.25A41.78,41.78,0,0,0,35.36.51,41.86,41.86,0,0,0,75.61,66.63,41.88,41.88,0,0,0,71.46,12.25Z"/><path class="cls-3" d="M32.37,65.82l2.25,1.53a10.58,10.58,0,0,1-.37-1.08Z"/><path class="cls-3" d="M30.47,58.72l3.38-.65-1-1.68a8.07,8.07,0,0,1-1,1.24A8.39,8.39,0,0,1,30.47,58.72Z"/><path class="cls-3" d="M29.48,59.3A8.95,8.95,0,0,1,19.14,45a8.86,8.86,0,0,1,3.26-2.07l-.46-2.41a11.87,11.87,0,0,1-1.82-.63l-4.39,2.69-4.29-4.28-3,3,2.72,4.43-5.06,1v7.2l5.51,1.32a13.63,13.63,0,0,0,.86,2.19L9.21,62.17l5.09,5.09,5.06-3.11a13.44,13.44,0,0,0,2.1.74l1.09,5.71h7.2L31,65.49l-1.49-.36Z"/><path class="cls-1" d="M34,51.72a43.45,43.45,0,0,1-4.6-7.49l-.29,1.23H22.89l-.49-2.55a8.93,8.93,0,0,0-3.26,14.72A9,9,0,0,0,29.48,59.3v-.39l1-.19a8.39,8.39,0,0,0,1.32-1.09,8.07,8.07,0,0,0,1-1.24L31.5,54.24Z"/><path class="cls-4" d="M17.84,39.19a15.1,15.1,0,0,1,1.6-.82l.91-3.78a5,5,0,0,1-.42-.38A7.75,7.75,0,0,1,25.52,21a42.05,42.05,0,0,1,2.14-9.13H21.55l-1.36,5.65a13.09,13.09,0,0,0-1.39.72L15,15.65,10.6,20.06,13,23.91l-4.39.84V31l4.79,1.15a11.82,11.82,0,0,0,.73,1.9l-2.78,4.11.13.13,2-2Z"/><path class="cls-4" d="M20.12,39.87a11.87,11.87,0,0,0,1.82.63l.46,2.41a9,9,0,0,1,6.47.12,42.13,42.13,0,0,1-2.31-6.64,7.76,7.76,0,0,1-6.21-1.8l-.91,3.78a15.1,15.1,0,0,0-1.6.82l-4.36-2.95-2,2,4.29,4.28Z"/><path class="cls-4" d="M29.13,45.46l.29-1.23c-.19-.39-.37-.79-.55-1.2a9,9,0,0,0-6.47-.12l.49,2.55Z"/><path class="cls-1" d="M25.65,31.84A42.07,42.07,0,0,1,25.52,21a7.75,7.75,0,0,0-5.59,13.24,5,5,0,0,0,.42.38L21,31.84Z"/><path class="cls-1" d="M21,31.84l-.66,2.75a7.76,7.76,0,0,0,6.21,1.8,41.62,41.62,0,0,1-.91-4.55Z"/><polygon class="cls-5" points="30.97 65.49 32.37 65.82 31.1 64.96 30.97 65.49"/><path class="cls-5" d="M38.68,56.87,38,57l-.36.75L39,60.11a7.73,7.73,0,0,1,1.08-1.94C39.63,57.75,39.15,57.31,38.68,56.87Z"/><path class="cls-5" d="M58.78,67.46a42.74,42.74,0,0,1-5.41-1.55,7.63,7.63,0,0,1-1.64,2.42A7.73,7.73,0,0,1,38.83,65l-3.1,3.1-1.11-.75c.11.27.23.55.36.82l-2.77,4.09,4.4,4.39L41,74a13,13,0,0,0,1.81.64l1,4.93H50l1.17-4.87,4,2.71,4.4-4.4-2.78-4.54c.11-.21.21-.43.31-.65Z"/><path class="cls-5" d="M38.83,65A7.73,7.73,0,0,1,39,60.11L37.6,57.76,38,57l.72-.14c-.29-.27-.58-.54-.86-.82a43.26,43.26,0,0,1-3.45-3.89,8.86,8.86,0,0,1-1.55,4.23l1,1.68-3.38.65a8.25,8.25,0,0,1-1,.58v5.83l1.49.36L31.1,65l1.27.86,1.88.45a10.58,10.58,0,0,0,.37,1.08l1.11.75Z"/><path class="cls-5" d="M29.48,59.3a8.25,8.25,0,0,0,1-.58l-1,.19Z"/><path class="cls-5" d="M31.5,54.24l1.32,2.15a8.86,8.86,0,0,0,1.55-4.23c-.11-.15-.24-.29-.35-.44Z"/><path class="cls-1" d="M39,60.11,40.82,63l-2,2a7.73,7.73,0,0,0,14.54.91,42.47,42.47,0,0,1-13.25-7.74A7.73,7.73,0,0,0,39,60.11Z"/><path class="cls-1" d="M39,60.11A7.73,7.73,0,0,0,38.83,65l2-2Z"/><path class="cls-6" d="M38.8,15.83A39.15,39.15,0,0,1,73.73,51"/><path class="cls-6" d="M38.68,24A30.17,30.17,0,0,1,65.6,51.07"/><path class="cls-6" d="M38.08,31.89A22,22,0,0,1,57.71,51.65"/></g></g></svg>