<svg xmlns="http://www.w3.org/2000/svg" viewBox="0 0 101.83 77.93"><defs><style>.cls-1{fill:#fbb040;}.cls-2{fill:#6d6e71;}.cls-3,.cls-8{fill:none;stroke-miterlimit:10;}.cls-3{stroke:#fff;stroke-width:1.5px;}.cls-4{fill:#fff;}.cls-5{fill:#a7a9ac;}.cls-6{fill:#9b8579;}.cls-7{fill:#f7941d;}.cls-8{stroke:#d1d3d4;}</style></defs><title>Asset 1</title><g id="Layer_2" data-name="Layer 2"><g id="Layer_1-2" data-name="Layer 1"><path class="cls-1" d="M101.83,12A12.1,12.1,0,0,0,89.76,0H11.93A12,12,0,0,0,0,12V53.33H101.83Z"/><path class="cls-2" d="M12.07,77.93H89.9a12,12,0,0,0,11.93-12V34.33H0v31.6A12.1,12.1,0,0,0,12.07,77.93Z"/><line class="cls-3" x1="48.75" y1="21.45" x2="92.54" y2="21.45"/><line class="cls-3" x1="48.75" y1="15.45" x2="92.54" y2="15.45"/><line class="cls-3" x1="48.75" y1="27.49" x2="92.54" y2="27.49"/><path class="cls-4" d="M39.69,26.85A14.49,14.49,0,1,0,25.21,41.34,14.48,14.48,0,0,0,39.69,26.85Z"/><path class="cls-4" d="M26.06,43.88A17.61,17.61,0,1,1,43.68,26.27,17.63,17.63,0,0,1,26.06,43.88Z"/><path class="cls-4" d="M26.06,9.16A17.11,17.11,0,1,1,9,26.27,17.12,17.12,0,0,1,26.06,9.16m0-1A18.11,18.11,0,1,0,44.18,26.27,18.13,18.13,0,0,0,26.06,8.16Z"/><path class="cls-4" d="M26.06,43A16.72,16.72,0,1,1,42.78,26.27,16.73,16.73,0,0,1,26.06,43Z"/><path class="cls-5" d="M26.06,10.05A16.22,16.22,0,1,1,9.85,26.27,16.22,16.22,0,0,1,26.06,10.05m0-1A17.22,17.22,0,1,0,43.28,26.27,17.24,17.24,0,0,0,26.06,9.05Z"/><path class="cls-6" d="M23.37,22.43V40.78c.7.06,1.4.11,2.12.11a21.79,21.79,0,0,0,3.27-.24V22.43Z"/><path class="cls-1" d="M30,19.65V40.24a16,16,0,0,0,5.39-2.79V19.65Z"/><path class="cls-7" d="M16.73,25.67V37.74a14.4,14.4,0,0,0,5.39,2.79V25.67Z"/><polyline class="cls-8" points="70.64 66.63 17.98 61.78 50.98 47.67 70.64 66.63 82.44 45.2"/><circle class="cls-1" cx="17.99" cy="60.71" r="6.13"/><circle class="cls-1" cx="70.64" cy="66.63" r="6.13"/><circle class="cls-1" cx="50.99" cy="47.67" r="6.13"/><circle class="cls-1" cx="82.44" cy="45.2" r="6.13"/></g></g></svg>