<svg id="Layer_1" data-name="Layer 1" xmlns="http://www.w3.org/2000/svg" viewBox="0 0 157.33 200"><defs><style>.cls-1,.cls-2{fill:#002c74;}.cls-2{fill-rule:evenodd;}</style></defs><title>Artboard 8</title><path class="cls-1" d="M0,0H0V157.33H157.33V0ZM118,78.66H78.66V118H39.33V78.66H78.66V39.33H118Z"/><path class="cls-2" d="M145.88,178.32c-6.52,0-11.45,4.6-11.45,10.81S139.36,200,145.88,200s11.45-4.72,11.45-10.87S152.39,178.32,145.88,178.32Zm.06,17.48a6.63,6.63,0,0,1-6.58-6.67,6.56,6.56,0,0,1,6.58-6.61,6.64,6.64,0,0,1,0,13.28Z"/><path class="cls-2" d="M123.18,192.78c2.59-1.21,4-3.59,4-6.88,0-4.72-3.16-7.4-8.74-7.4h-9.25v21.32H114v-6.09h4.9l3.38,6.09h5.45Zm-4.75-3.07H114v-7.22h4.44c2.65,0,4.18,1.19,4.18,3.56S121.08,189.71,118.43,189.71Z"/><path class="cls-2" d="M91.87,178.5h-5l-9.26,21.32h5l1.67-4.14h9.87l1.67,4.14H101Zm-6,13.31,3.38-8.28,3.35,8.28Z"/><polygon class="cls-2" points="52.7 178.5 57.88 178.5 63.69 194.58 69.54 178.5 74.5 178.5 66.04 199.82 61.07 199.82 52.7 178.5"/><path class="cls-2" d="M40.47,178.5h-5l-9.25,21.32h5l1.67-4.14h9.87l1.67,4.14h5.15Zm-6,13.31,3.38-8.28,3.35,8.28Z"/><polygon class="cls-2" points="0 178.5 4.81 178.5 4.81 187.4 14.46 187.4 14.46 178.5 19.27 178.5 19.27 199.82 14.46 199.82 14.46 191.41 4.81 191.41 4.81 199.82 0 199.82 0 178.5"/></svg>