<svg xmlns="http://www.w3.org/2000/svg" viewBox="0 0 58.3 58.44"><defs><style>.cls-1{fill:#fbb040;}.cls-2{fill:#fff;}.cls-3{fill:#a7a9ac;}.cls-4,.cls-6{fill:none;stroke-miterlimit:10;}.cls-4{stroke:#6d6e71;stroke-width:1.48px;}.cls-5{fill:#6d6e71;}.cls-6{stroke:#d1d3d4;stroke-width:0.89px;}</style></defs><title>instrument2</title><g id="Layer_2" data-name="Layer 2"><g id="Layer_1-2" data-name="Layer 1"><path class="cls-1" d="M58.3,25.29,49.18,23.1c-.13-.41-.28-.81-.43-1.2l5.88-8.67L46.87,5.48l-8.26,5.07a21.4,21.4,0,0,0-2.18-1L34.59,0h-11L21.37,9.42a20.27,20.27,0,0,0-2.52,1.11L11.13,5.3,3.38,13.05l5.34,8.71a21.2,21.2,0,0,0-.84,2.63L0,25.9v11l7.71,1.85-4.4,6.5L11.06,53l7.36-4.51a21.32,21.32,0,0,0,3.28,1.44l1.64,8.55h11l2.11-8.8a20.89,20.89,0,0,0,3-1.47l7.33,5,7.76-7.76-4.62-7.53,8.36-1.61Z"/><path class="cls-1" d="M41.7,29.76A13.34,13.34,0,1,0,28.36,43.1,13.34,13.34,0,0,0,41.7,29.76Z"/><path class="cls-2" d="M29.15,45.41A16.19,16.19,0,1,1,45.34,29.22,16.2,16.2,0,0,1,29.15,45.41Z"/><path class="cls-2" d="M29.15,13.46A15.76,15.76,0,1,1,13.39,29.22,15.76,15.76,0,0,1,29.15,13.46m0-.86A16.62,16.62,0,1,0,45.77,29.22,16.64,16.64,0,0,0,29.15,12.6Z"/><path class="cls-2" d="M29.21,44.54A15.36,15.36,0,1,1,44.58,29.18,15.38,15.38,0,0,1,29.21,44.54Z"/><path class="cls-3" d="M29.21,14.24A14.94,14.94,0,1,1,14.28,29.18,14.94,14.94,0,0,1,29.21,14.24m0-.85A15.79,15.79,0,1,0,45,29.18,15.81,15.81,0,0,0,29.21,13.39Z"/><circle class="cls-4" cx="26.94" cy="27.35" r="8.64"/><rect class="cls-5" x="34.4" y="34.94" width="3.66" height="1.88" transform="translate(-14.76 36.13) rotate(-45)"/><rect class="cls-5" x="32.36" y="32.63" width="3.66" height="2.41" transform="translate(-13.91 34.08) rotate(-45)"/><path class="cls-6" d="M32.31,30a6,6,0,0,1-2.71,2.65"/><path class="cls-6" d="M21,27.28a6,6,0,0,1,6-6"/><path class="cls-5" d="M38.65,35.74l-2.59,2.59.95,1a.54.54,0,0,0,.76,0l1.77-1.77a.63.63,0,0,0,0-.88Z"/></g></g></svg>