<svg xmlns="http://www.w3.org/2000/svg" viewBox="0 0 175.62 89.35"><defs><style>.cls-1{fill:#d1d3d4;}.cls-2{fill:#ffe6cb;}.cls-3{fill:#fff;}.cls-4,.cls-9{fill:#a7a9ac;}.cls-10,.cls-11,.cls-12,.cls-5{fill:none;}.cls-11,.cls-5{stroke:#6d6e71;}.cls-10,.cls-11,.cls-12,.cls-5,.cls-9{stroke-miterlimit:10;}.cls-6{fill:#fbb040;}.cls-7{fill:#6d6e71;}.cls-8{fill:#bcbec0;}.cls-9{stroke:#a7a9ac;}.cls-10{stroke:#fff;}.cls-11{stroke-width:1.48px;}.cls-12{stroke:#d1d3d4;stroke-width:0.89px;}</style></defs><title>instruments</title><g id="Layer_2" data-name="Layer 2"><g id="Layer_1-2" data-name="Layer 1"><path class="cls-1" d="M58.71,25.46l-9.2-2.2c-.12-.41-.27-.81-.42-1.21L55,13.33,47.2,5.52l-8.32,5.1a21.73,21.73,0,0,0-2.2-1L34.83,0h-11L21.52,9.48A22.22,22.22,0,0,0,19,10.6L11.21,5.33,3.4,13.14l5.38,8.77a21.94,21.94,0,0,0-.85,2.64L0,26.08v11L7.76,39,3.33,45.52l7.8,7.81,7.42-4.55a22.19,22.19,0,0,0,3.3,1.46l1.65,8.6h11L36.67,50a22.21,22.21,0,0,0,3.07-1.47l7.39,5,7.8-7.8-4.65-7.59,8.43-1.62Z"/><path class="cls-2" d="M42,30A13.44,13.44,0,1,0,28.56,43.4,13.43,13.43,0,0,0,42,30Z"/><path class="cls-3" d="M29.35,45.79A16.37,16.37,0,1,1,45.72,29.42,16.39,16.39,0,0,1,29.35,45.79Z"/><path class="cls-3" d="M29.35,13.55A15.87,15.87,0,1,1,13.48,29.42,15.87,15.87,0,0,1,29.35,13.55m0-1A16.87,16.87,0,1,0,46.22,29.42,16.89,16.89,0,0,0,29.35,12.55Z"/><path class="cls-3" d="M29.35,45A15.54,15.54,0,1,1,44.89,29.42,15.56,15.56,0,0,1,29.35,45Z"/><path class="cls-4" d="M29.35,14.38a15,15,0,1,1-15,15,15,15,0,0,1,15-15m0-1a16,16,0,1,0,16,16,16.06,16.06,0,0,0-16-16Z"/><line class="cls-5" x1="18.8" y1="23.4" x2="41.13" y2="23.4"/><rect class="cls-6" x="22.39" y="20.42" width="5.3" height="5.96"/><line class="cls-5" x1="18.8" y1="30.28" x2="41.13" y2="30.28"/><rect class="cls-7" x="32.71" y="27.3" width="5.3" height="5.96"/><line class="cls-5" x1="18.8" y1="37.16" x2="41.13" y2="37.16"/><rect class="cls-8" x="25.83" y="34.19" width="5.3" height="5.96"/><path class="cls-7" d="M175.62,27.94l-9.19-2.2c-.13-.41-.28-.81-.43-1.21l5.92-8.73L164.11,8l-8.32,5.1a21.73,21.73,0,0,0-2.2-1l-1.85-9.63h-11L138.43,12a20.6,20.6,0,0,0-2.54,1.12l-7.77-5.27-7.81,7.81,5.38,8.77a21.9,21.9,0,0,0-.84,2.64l-7.94,1.53v11l7.77,1.87L120.24,48l7.81,7.8,7.41-4.54a21.58,21.58,0,0,0,3.3,1.45l1.66,8.61h11l2.12-8.86A21.72,21.72,0,0,0,156.65,51L164,56l7.8-7.81-4.65-7.58L175.62,39Z"/><path class="cls-7" d="M158.9,32.44a13.44,13.44,0,1,0-13.43,13.44A13.43,13.43,0,0,0,158.9,32.44Z"/><path class="cls-3" d="M146.27,48.27A16.37,16.37,0,1,1,162.64,31.9,16.39,16.39,0,0,1,146.27,48.27Z"/><path class="cls-3" d="M146.27,16A15.87,15.87,0,1,1,130.39,31.9,15.87,15.87,0,0,1,146.27,16m0-1A16.87,16.87,0,1,0,163.14,31.9,16.89,16.89,0,0,0,146.27,15Z"/><path class="cls-3" d="M146.27,47.44A15.54,15.54,0,1,1,161.8,31.9,15.56,15.56,0,0,1,146.27,47.44Z"/><path class="cls-4" d="M146.27,16.86a15,15,0,1,1-15,15,15,15,0,0,1,15-15m0-1a16,16,0,1,0,16,16,16.06,16.06,0,0,0-16-16Z"/><line class="cls-9" x1="146.27" y1="44.39" x2="146.27" y2="47.55"/><line class="cls-9" x1="158.88" y1="32.44" x2="162.04" y2="32.44"/><line class="cls-9" x1="137" y1="40.69" x2="134.76" y2="42.93"/><line class="cls-9" x1="155.38" y1="40.69" x2="157.61" y2="42.93"/><path class="cls-6" d="M146.52,17.68a13.91,13.91,0,0,0-12,20.93,11.68,11.68,0,0,1,21-9.71h4.62A13.93,13.93,0,0,0,146.52,17.68Z"/><line class="cls-10" x1="146.27" y1="17.68" x2="146.27" y2="23.9"/><line class="cls-10" x1="131.35" y1="32.44" x2="134.52" y2="32.44"/><line class="cls-10" x1="156.25" y1="21.45" x2="151.42" y2="26.28"/><line class="cls-10" x1="136.13" y1="21.45" x2="140.59" y2="25.91"/><path class="cls-7" d="M149,32.68l1.37-11-6.65,8.87A3.26,3.26,0,1,0,149,32.68Z"/><path class="cls-6" d="M117.5,56.2,108.38,54c-.13-.41-.27-.81-.43-1.2l5.88-8.67-7.75-7.75-8.27,5.07a20.45,20.45,0,0,0-2.18-1l-1.84-9.56h-11l-2.26,9.41a20.32,20.32,0,0,0-2.52,1.12L70.33,36.2,62.58,44l5.34,8.71a21.6,21.6,0,0,0-.84,2.62L59.2,56.81v11l7.71,1.85-4.4,6.5,7.75,7.75,7.36-4.52A21.36,21.36,0,0,0,80.9,80.8l1.64,8.55h11l2.11-8.81a21.92,21.92,0,0,0,3-1.46l7.34,5,7.75-7.75-4.62-7.53,8.36-1.61Z"/><path class="cls-6" d="M100.9,60.67A13.34,13.34,0,1,0,87.56,74,13.34,13.34,0,0,0,100.9,60.67Z"/><path class="cls-3" d="M88.35,76.32a16.19,16.19,0,1,1,16.19-16.19A16.21,16.21,0,0,1,88.35,76.32Z"/><path class="cls-3" d="M88.35,44.37A15.76,15.76,0,1,1,72.59,60.13,15.76,15.76,0,0,1,88.35,44.37m0-.86A16.62,16.62,0,1,0,105,60.13,16.64,16.64,0,0,0,88.35,43.51Z"/><path class="cls-3" d="M88.42,75.45a15.37,15.37,0,1,1,15.36-15.37A15.39,15.39,0,0,1,88.42,75.45Z"/><path class="cls-4" d="M88.42,45.15A14.94,14.94,0,1,1,73.48,60.09,14.94,14.94,0,0,1,88.42,45.15m0-.85a15.79,15.79,0,1,0,15.79,15.79A15.8,15.8,0,0,0,88.42,44.3Z"/><circle class="cls-11" cx="86.14" cy="58.26" r="8.64"/><rect class="cls-7" x="93.6" y="65.85" width="3.66" height="1.88" transform="translate(-19.27 87.04) rotate(-45)"/><rect class="cls-7" x="91.56" y="63.54" width="3.66" height="2.41" transform="translate(-18.43 85) rotate(-45)"/><path class="cls-12" d="M91.52,60.94a6.06,6.06,0,0,1-2.72,2.65"/><path class="cls-12" d="M80.15,58.18a6,6,0,0,1,6-6"/><path class="cls-7" d="M97.85,66.65l-2.59,2.59,1,1a.53.53,0,0,0,.75,0l1.77-1.77a.63.63,0,0,0,0-.88Z"/></g></g></svg>