<?xml version="1.0" encoding="UTF-8"?><svg xmlns="http://www.w3.org/2000/svg" viewBox="0 0 675.02 232.75"><defs><style>.d{fill:none;}.e{fill:#002c74;}.f{fill:#414042;}</style></defs><g id="a"/><g id="b"><g id="c"><g><rect class="d" width="675.02" height="232.75"/><g><path class="e" d="M514.03,87.2c-3.4,9.12-12.16,15.63-22.46,15.63s-19.07-6.51-22.46-15.63h-16.98c3.85,18.25,20.04,31.96,39.44,31.96s35.59-13.71,39.44-31.96h-16.98ZM38.46,40.48v14.75h23.61v62.17h14.74V55.23h22.85v-14.75H38.46Zm319.21,0l.04,76.7h15.32V40.48h-15.36Zm-244.48,0v13.11l27.97-.03c10.52,0,15,3.26,15,10.91,0,7.08-3.8,10.48-12.32,11.02h-30.65v41.69h15.9v-26.86h13.6l14.82,26.86h17.04l-14.77-26.86h39.5l-11.33,26.86h16.22l11.33-26.86h23.85l11.32,26.86h16.22l-11.32-26.86h31.39l.03,26.86h15.32v-26.86h31.08v-14.87l-84.09,.02-14.6-34.62h-16.22l14.6,34.62h-63.52c.77-1.54,2.4-5.23,2.4-11.42,0-15.86-9.84-23.57-30.07-23.57h-28.71Zm173.76,0v15.85l52.17-.04v-15.81h-52.17Zm319.67,0l-17.61,53.4-17.61-53.4h-19.42l-10.59,76.7h15.42l7.29-51.6,17.02,51.6h15.77l17.04-51.6,7.28,51.6h15.37l-10.59-76.7h-19.37Zm-154.88,32.47h16.61c2.63-10.39,12.02-18.09,23.23-18.09s20.6,7.7,23.23,18.09h16.61c-2.86-19.46-19.58-34.42-39.84-34.42s-36.98,14.96-39.84,34.42m-62.19,5.68c0,22.27,18.05,40.32,40.32,40.32,5.5,0,10.74-1.11,15.51-3.1l-8.28-14.34c-2.28,.72-4.71,1.11-7.23,1.11-13.25,0-23.99-10.74-23.99-23.99s10.74-23.99,23.99-23.99c2.54,0,4.99,.4,7.29,1.14l8.28-14.34c-4.79-2.01-10.05-3.12-15.57-3.12-22.27,0-40.32,18.05-40.32,40.32"/><g><path class="f" d="M74.49,139.2v1.91h-8.74v6.43h7.72v1.91h-7.72v8.05h-2.19v-18.29h10.92Z"/><path class="f" d="M80,139.2v2.08h-2.08v-2.08h2.08Zm0,5.08v13.21h-2.08v-13.21h2.08Z"/><path class="f" d="M95.72,149.09v8.41h-2.08v-8.21c0-2.29-1.22-3.4-3.07-3.4-1.25,0-2.62,.36-3.86,1.09v10.52h-2.08v-13.21h1.91v.96c1.25-.74,2.92-1.22,4.55-1.22,1.52,0,2.64,.43,3.46,1.24,.92,.92,1.19,2.13,1.19,3.81Z"/><path class="f" d="M111.34,149.09v8.41h-2.08v-8.21c0-2.29-1.22-3.4-3.07-3.4-1.25,0-2.62,.36-3.86,1.09v10.52h-2.08v-13.21h1.91v.96c1.25-.74,2.92-1.22,4.55-1.22,1.52,0,2.64,.43,3.46,1.24,.92,.92,1.19,2.13,1.19,3.81Z"/><path class="f" d="M118.02,139.2v2.08h-2.08v-2.08h2.08Zm0,5.08v13.21h-2.08v-13.21h2.08Z"/><path class="f" d="M131,144.87l-.58,1.63c-1.17-.43-2.31-.69-3.71-.69-1.68,0-2.72,.66-2.72,1.7s.51,1.68,2.87,2.29c3.66,.94,4.98,2.08,4.98,4.12,0,2.34-2.01,3.84-5.39,3.84-1.68,0-3.38-.33-5.03-.86l.58-1.63c1.45,.46,3,.71,4.45,.71,2.21,0,3.33-.71,3.33-1.96,0-.97-.84-1.73-3.58-2.41-3.33-.84-4.27-2.06-4.27-3.91,0-2.08,1.83-3.66,4.78-3.66,1.68,0,2.95,.33,4.29,.84Z"/><path class="f" d="M146.45,149.09v8.41h-2.08v-8.21c0-2.29-1.22-3.4-3.07-3.4-1.25,0-2.62,.36-3.86,1.09v10.52h-2.08v-18.8h2.08v6.45c1.22-.66,2.82-1.12,4.37-1.12s2.64,.43,3.46,1.24c.92,.92,1.19,2.13,1.19,3.81Z"/><path class="f" d="M156.88,141.11v-1.91h14.23v1.91h-6.02v16.39h-2.18v-16.39h-6.02Z"/><path class="f" d="M174.23,147.64v9.86h-2.08v-13.21h1.91v1.55c1.27-.84,3.28-1.58,4.8-1.8l.36,1.85c-1.58,.25-3.51,.89-4.98,1.75Z"/><path class="f" d="M192.22,157.39v.1h-2.03c-.1-.28-.2-.53-.25-.81-1.04,.61-2.74,1.07-4.06,1.07-3.02,0-4.75-1.45-4.75-4.17,0-2.49,2.13-4.17,5.67-4.17,1.19,0,1.98,.08,2.79,.2v-.56c0-2.19-1.22-3.18-3.25-3.18-1.3,0-2.64,.23-3.96,.71l-.63-1.6c1.68-.66,3.2-.96,4.75-.96,1.93,0,3.12,.51,3.96,1.32,.86,.86,1.19,2.03,1.19,3.53v4.57c0,1.24,.13,2.67,.58,3.94Zm-6.1-1.47c1.17,0,2.46-.28,3.46-.84v-3.81c-.86-.15-1.4-.23-2.74-.23-2.41,0-3.58,.97-3.58,2.54s.99,2.34,2.87,2.34Z"/><path class="f" d="M207.28,149.09v8.41h-2.08v-8.21c0-2.29-1.22-3.4-3.07-3.4-1.25,0-2.62,.36-3.86,1.09v10.52h-2.08v-13.21h1.91v.96c1.25-.74,2.92-1.22,4.55-1.22,1.52,0,2.64,.43,3.46,1.24,.92,.92,1.19,2.13,1.19,3.81Z"/><path class="f" d="M220.08,144.87l-.58,1.63c-1.17-.43-2.31-.69-3.71-.69-1.68,0-2.72,.66-2.72,1.7s.51,1.68,2.87,2.29c3.66,.94,4.98,2.08,4.98,4.12,0,2.34-2.01,3.84-5.39,3.84-1.68,0-3.38-.33-5.03-.86l.58-1.63c1.45,.46,3,.71,4.45,.71,2.21,0,3.33-.71,3.33-1.96,0-.97-.84-1.73-3.58-2.41-3.33-.84-4.27-2.06-4.27-3.91,0-2.08,1.83-3.66,4.78-3.66,1.68,0,2.95,.33,4.29,.84Z"/><path class="f" d="M236.44,150.89c0,4.73-3,6.86-6.33,6.86-1.35,0-2.67-.33-3.63-.84v5.41h-2.08v-18.04h1.91v.71c.99-.58,2.29-.96,3.76-.96,3.28,0,6.38,2.13,6.38,6.86Zm-2.13,0c0-3.53-2.16-5-4.55-5-1.25,0-2.39,.28-3.3,.86v8.36c.94,.51,2.16,.79,3.35,.79,2.44,0,4.5-1.47,4.5-5Z"/><path class="f" d="M252.41,150.89c0,4.09-2.9,6.86-6.53,6.86s-6.53-2.77-6.53-6.86,2.9-6.86,6.53-6.86,6.53,2.77,6.53,6.86Zm-2.13,0c0-3.12-1.85-5-4.39-5s-4.4,1.88-4.4,5,1.85,5,4.4,5,4.39-1.88,4.39-5Z"/><path class="f" d="M258.28,147.64v9.86h-2.08v-13.21h1.91v1.55c1.27-.84,3.28-1.58,4.8-1.8l.36,1.85c-1.58,.25-3.51,.89-4.98,1.75Z"/><path class="f" d="M273.41,157.27c-.76,.3-1.83,.48-2.59,.48-.99,0-1.93-.25-2.54-.86-.61-.61-.89-1.47-.89-2.74v-8.05h-2.19v-1.8h2.19v-3.33h2.08v3.33h3.35v1.8h-3.35v7.83c0,1.42,.61,2.03,1.7,2.03,.61,0,1.27-.15,1.88-.33l.36,1.65Z"/><path class="f" d="M294.19,157.39v.1h-2.03c-.1-.28-.2-.53-.25-.81-1.04,.61-2.74,1.07-4.06,1.07-3.02,0-4.75-1.45-4.75-4.17,0-2.49,2.13-4.17,5.67-4.17,1.19,0,1.98,.08,2.79,.2v-.56c0-2.19-1.22-3.18-3.25-3.18-1.3,0-2.64,.23-3.96,.71l-.63-1.6c1.68-.66,3.2-.96,4.75-.96,1.93,0,3.12,.51,3.96,1.32,.86,.86,1.19,2.03,1.19,3.53v4.57c0,1.24,.13,2.67,.58,3.94Zm-6.1-1.47c1.17,0,2.46-.28,3.46-.84v-3.81c-.86-.15-1.4-.23-2.74-.23-2.41,0-3.58,.97-3.58,2.54s.99,2.34,2.87,2.34Z"/><path class="f" d="M309.25,149.09v8.41h-2.08v-8.21c0-2.29-1.22-3.4-3.07-3.4-1.25,0-2.62,.36-3.86,1.09v10.52h-2.08v-13.21h1.91v.96c1.25-.74,2.92-1.22,4.55-1.22,1.52,0,2.64,.43,3.46,1.24,.92,.92,1.19,2.13,1.19,3.81Z"/><path class="f" d="M324.98,138.7v18.8h-1.91v-.71c-.99,.58-2.29,.96-3.76,.96-3.28,0-6.38-2.13-6.38-6.86s3-6.86,6.33-6.86c1.35,0,2.67,.33,3.63,.84v-6.17h2.08Zm-5.36,17.2c1.25,0,2.39-.28,3.3-.86v-8.36c-.94-.51-2.16-.79-3.35-.79-2.44,0-4.5,1.47-4.5,5s2.16,5,4.55,5Z"/><path class="f" d="M350.89,140.07l-.71,1.8c-1.27-.56-2.92-.94-4.65-.94-3.73,0-6.76,2.69-6.76,7.42s3.02,7.42,6.76,7.42c1.8,0,3.43-.38,4.78-.97l.69,1.78c-1.6,.79-3.46,1.22-5.56,1.22-4.78,0-8.94-3.58-8.94-9.45s4.17-9.45,8.94-9.45c2.16,0,3.94,.43,5.46,1.17Z"/><path class="f" d="M366.18,150.89c0,4.09-2.9,6.86-6.53,6.86s-6.53-2.77-6.53-6.86,2.9-6.86,6.53-6.86,6.53,2.77,6.53,6.86Zm-2.13,0c0-3.12-1.85-5-4.39-5s-4.4,1.88-4.4,5,1.85,5,4.4,5,4.39-1.88,4.39-5Z"/><path class="f" d="M389.19,148.71v8.79h-2.08v-8.61c0-1.85-1.22-3.05-3.07-3.05-1.14,0-2.52,.36-3.43,.91v10.75h-2.06v-8.74c0-2.06-1.04-2.92-2.87-2.92-1.12,0-2.49,.38-3.63,1.09v10.57h-2.08v-13.21h1.91v.94c1.14-.71,2.77-1.19,4.34-1.19,1.3,0,2.62,.46,3.58,1.3,1.3-.81,3.02-1.3,4.78-1.3,1.5,0,2.69,.46,3.46,1.22,.84,.84,1.17,1.91,1.17,3.46Z"/><path class="f" d="M412.96,148.71v8.79h-2.08v-8.61c0-1.85-1.22-3.05-3.07-3.05-1.14,0-2.52,.36-3.43,.91v10.75h-2.06v-8.74c0-2.06-1.04-2.92-2.87-2.92-1.12,0-2.49,.38-3.63,1.09v10.57h-2.08v-13.21h1.91v.94c1.14-.71,2.77-1.19,4.34-1.19,1.3,0,2.62,.46,3.58,1.3,1.3-.81,3.02-1.3,4.78-1.3,1.5,0,2.69,.46,3.46,1.22,.84,.84,1.17,1.91,1.17,3.46Z"/><path class="f" d="M428.4,144.29v13.21h-1.91v-.92c-1.22,.71-2.82,1.17-4.45,1.17-1.52,0-2.64-.43-3.46-1.25-.92-.91-1.19-2.13-1.19-3.81v-8.41h2.08v8.21c0,2.29,1.22,3.46,3.07,3.46,1.25,0,2.54-.36,3.76-1.09v-10.57h2.08Z"/><path class="f" d="M444.1,149.09v8.41h-2.08v-8.21c0-2.29-1.22-3.4-3.07-3.4-1.25,0-2.62,.36-3.86,1.09v10.52h-2.08v-13.21h1.91v.96c1.25-.74,2.92-1.22,4.55-1.22,1.52,0,2.64,.43,3.46,1.24,.92,.92,1.19,2.13,1.19,3.81Z"/><path class="f" d="M450.78,139.2v2.08h-2.08v-2.08h2.08Zm0,5.08v13.21h-2.08v-13.21h2.08Z"/><path class="f" d="M465.64,145.1l-.69,1.58c-.97-.46-2.39-.79-3.48-.79-2.77,0-4.75,1.8-4.75,5s1.98,5,4.73,5c1.14,0,2.62-.33,3.58-.81l.69,1.57c-1.3,.71-2.74,1.09-4.5,1.09-3.63,0-6.61-2.46-6.61-6.86s2.97-6.86,6.63-6.86c1.68,0,3.15,.38,4.39,1.07Z"/><path class="f" d="M479.23,157.39v.1h-2.03c-.1-.28-.2-.53-.25-.81-1.04,.61-2.74,1.07-4.06,1.07-3.02,0-4.75-1.45-4.75-4.17,0-2.49,2.13-4.17,5.67-4.17,1.19,0,1.98,.08,2.79,.2v-.56c0-2.19-1.22-3.18-3.25-3.18-1.3,0-2.64,.23-3.96,.71l-.63-1.6c1.68-.66,3.2-.96,4.75-.96,1.93,0,3.12,.51,3.96,1.32,.86,.86,1.19,2.03,1.19,3.53v4.57c0,1.24,.13,2.67,.58,3.94Zm-6.1-1.47c1.17,0,2.46-.28,3.46-.84v-3.81c-.86-.15-1.4-.23-2.74-.23-2.41,0-3.58,.97-3.58,2.54s.99,2.34,2.87,2.34Z"/><path class="f" d="M489.62,157.27c-.76,.3-1.83,.48-2.59,.48-.99,0-1.93-.25-2.54-.86-.61-.61-.89-1.47-.89-2.74v-8.05h-2.19v-1.8h2.19v-3.33h2.08v3.33h3.35v1.8h-3.35v7.83c0,1.42,.61,2.03,1.7,2.03,.61,0,1.27-.15,1.88-.33l.36,1.65Z"/><path class="f" d="M494.87,139.2v2.08h-2.08v-2.08h2.08Zm0,5.08v13.21h-2.08v-13.21h2.08Z"/><path class="f" d="M511.72,150.89c0,4.09-2.9,6.86-6.53,6.86s-6.53-2.77-6.53-6.86,2.9-6.86,6.53-6.86,6.53,2.77,6.53,6.86Zm-2.13,0c0-3.12-1.85-5-4.39-5s-4.4,1.88-4.4,5,1.85,5,4.4,5,4.39-1.88,4.39-5Z"/><path class="f" d="M526.6,149.09v8.41h-2.08v-8.21c0-2.29-1.22-3.4-3.07-3.4-1.25,0-2.62,.36-3.86,1.09v10.52h-2.08v-13.21h1.91v.96c1.25-.74,2.92-1.22,4.55-1.22,1.52,0,2.64,.43,3.46,1.24,.92,.92,1.19,2.13,1.19,3.81Z"/><path class="f" d="M539.4,144.87l-.58,1.63c-1.17-.43-2.31-.69-3.71-.69-1.68,0-2.72,.66-2.72,1.7s.51,1.68,2.87,2.29c3.66,.94,4.98,2.08,4.98,4.12,0,2.34-2.01,3.84-5.39,3.84-1.68,0-3.38-.33-5.03-.86l.58-1.63c1.45,.46,3,.71,4.45,.71,2.21,0,3.33-.71,3.33-1.96,0-.97-.84-1.73-3.58-2.41-3.33-.84-4.27-2.06-4.27-3.91,0-2.08,1.83-3.66,4.78-3.66,1.68,0,2.95,.33,4.29,.84Z"/><path class="f" d="M560.96,153.41h-8.03l-1.42,4.09h-2.21l6.76-18.42h1.88l6.76,18.42h-2.26l-1.47-4.09Zm-5.44-7.27l-1.93,5.46h6.73l-1.96-5.46-1.4-4.27-1.45,4.27Z"/><path class="f" d="M579.63,158.64c0,2.26-2.08,3.94-7.09,3.94-4.24,0-5.89-1.22-5.89-2.95,0-1.45,.76-2.59,1.93-3.46-.51-.48-.76-1.09-.76-1.75,0-.79,.48-1.65,1.37-2.39-.97-.81-1.55-1.98-1.55-3.35,0-2.72,2.31-4.65,5.36-4.65,1.12,0,2.13,.25,2.97,.71,.71-.89,1.5-1.52,2.59-2.26l1.09,1.55c-1.02,.58-1.7,.96-2.49,1.63,.74,.79,1.19,1.83,1.19,3.02,0,2.72-2.31,4.65-5.36,4.65-.91,0-1.75-.18-2.51-.48-.43,.48-.69,.94-.69,1.35,0,.66,.23,1.12,2.29,1.22l3.58,.18c2.57,.13,3.96,1.25,3.96,3.05Zm-2.13,.2c0-.81-.56-1.35-2.39-1.45l-3.84-.2c-.46-.03-.89-.1-1.25-.2-.86,.58-1.24,1.32-1.24,2.13,0,1.07,.94,1.68,3.76,1.68,3.84,0,4.95-.84,4.95-1.96Zm-7.88-10.16c0,1.83,1.37,2.92,3.38,2.92s3.38-1.09,3.38-2.92-1.37-2.92-3.38-2.92-3.38,1.09-3.38,2.92Z"/><path class="f" d="M593.48,151.58h-9.96c.28,2.77,2.18,4.32,4.83,4.32,1.32,0,2.82-.3,4.01-.79l.53,1.65c-1.52,.63-2.97,.99-4.75,.99-3.79,0-6.73-2.49-6.73-6.86s3.2-6.86,6.33-6.86c3.4,0,5.82,2.49,5.82,6.38,0,.36-.03,.94-.08,1.17Zm-9.93-1.73h7.88c-.08-2.57-1.65-3.99-3.68-3.99-2.16,0-3.84,1.32-4.19,3.99Z"/><path class="f" d="M608.39,149.09v8.41h-2.08v-8.21c0-2.29-1.22-3.4-3.07-3.4-1.25,0-2.62,.36-3.86,1.09v10.52h-2.08v-13.21h1.91v.96c1.25-.74,2.92-1.22,4.55-1.22,1.52,0,2.64,.43,3.46,1.24,.92,.92,1.19,2.13,1.19,3.81Z"/><path class="f" d="M623.09,145.1l-.69,1.58c-.97-.46-2.39-.79-3.48-.79-2.77,0-4.75,1.8-4.75,5s1.98,5,4.73,5c1.14,0,2.62-.33,3.58-.81l.69,1.57c-1.3,.71-2.74,1.09-4.5,1.09-3.63,0-6.61-2.46-6.61-6.86s2.97-6.86,6.63-6.86c1.68,0,3.15,.38,4.39,1.07Z"/><path class="f" d="M627.74,144.29l2.62,7.11,1.37,3.71,1.42-3.71,2.77-7.11h2.18l-6.43,15.52c-.81,1.86-2.01,2.77-3.71,2.77-.66,0-1.52-.13-2.34-.46l.58-1.65c.58,.2,1.14,.3,1.52,.3,.91,0,1.58-.41,2.11-1.65l.71-1.63-5.11-13.21h2.29Z"/></g><g><path class="f" d="M276.42,170.91v18.42h-1.5l-7.93-10.57-2.97-3.86,.05,3.96v10.34h-2.19v-18.44h1.5l8.94,11.58,1.93,2.74-.03-2.82v-11.36h2.18Z"/><path class="f" d="M291.63,189.1v.1h-2.03c-.1-.28-.2-.53-.25-.81-1.04,.61-2.74,1.07-4.06,1.07-3.02,0-4.75-1.45-4.75-4.17,0-2.49,2.13-4.17,5.67-4.17,1.19,0,1.98,.08,2.79,.2v-.56c0-2.19-1.22-3.18-3.25-3.18-1.3,0-2.64,.23-3.96,.71l-.63-1.6c1.68-.66,3.2-.96,4.75-.96,1.93,0,3.12,.51,3.96,1.32,.86,.86,1.19,2.03,1.19,3.53v4.57c0,1.24,.13,2.67,.58,3.94Zm-6.1-1.47c1.17,0,2.46-.28,3.46-.84v-3.81c-.86-.15-1.4-.23-2.74-.23-2.41,0-3.58,.97-3.58,2.54s.99,2.34,2.87,2.34Z"/><path class="f" d="M302.09,188.97c-.76,.3-1.83,.48-2.59,.48-.99,0-1.93-.25-2.54-.86-.61-.61-.89-1.47-.89-2.74v-8.05h-2.19v-1.8h2.19v-3.33h2.08v3.33h3.35v1.8h-3.35v7.83c0,1.42,.61,2.03,1.7,2.03,.61,0,1.27-.15,1.88-.33l.36,1.65Z"/><path class="f" d="M307.43,170.91v2.08h-2.08v-2.08h2.08Zm0,5.08v13.21h-2.08v-13.21h2.08Z"/><path class="f" d="M324.35,182.6c0,4.09-2.9,6.86-6.53,6.86s-6.53-2.77-6.53-6.86,2.9-6.86,6.53-6.86,6.53,2.77,6.53,6.86Zm-2.13,0c0-3.12-1.85-5-4.39-5s-4.4,1.88-4.4,5,1.85,5,4.4,5,4.39-1.88,4.39-5Z"/><path class="f" d="M339.28,180.79v8.41h-2.08v-8.21c0-2.29-1.22-3.4-3.07-3.4-1.25,0-2.62,.36-3.86,1.09v10.52h-2.08v-13.21h1.91v.96c1.25-.74,2.92-1.22,4.55-1.22,1.52,0,2.64,.43,3.46,1.24,.92,.92,1.19,2.13,1.19,3.81Z"/><path class="f" d="M354.01,189.1v.1h-2.03c-.1-.28-.2-.53-.25-.81-1.04,.61-2.74,1.07-4.06,1.07-3.02,0-4.75-1.45-4.75-4.17,0-2.49,2.13-4.17,5.67-4.17,1.19,0,1.98,.08,2.79,.2v-.56c0-2.19-1.22-3.18-3.25-3.18-1.3,0-2.64,.23-3.96,.71l-.63-1.6c1.68-.66,3.2-.96,4.75-.96,1.93,0,3.12,.51,3.96,1.32,.86,.86,1.19,2.03,1.19,3.53v4.57c0,1.24,.13,2.67,.58,3.94Zm-6.1-1.47c1.17,0,2.46-.28,3.46-.84v-3.81c-.86-.15-1.4-.23-2.74-.23-2.41,0-3.58,.97-3.58,2.54s.99,2.34,2.87,2.34Z"/><path class="f" d="M360.16,170.4v18.8h-2.08v-18.8h2.08Z"/><path class="f" d="M386.17,171.77l-.71,1.8c-1.27-.56-2.92-.94-4.65-.94-3.73,0-6.76,2.69-6.76,7.42s3.02,7.42,6.76,7.42c1.8,0,3.43-.38,4.78-.97l.69,1.78c-1.6,.79-3.46,1.22-5.56,1.22-4.78,0-8.94-3.58-8.94-9.45s4.17-9.45,8.94-9.45c2.16,0,3.94,.43,5.46,1.17Z"/><path class="f" d="M388.93,175.99l2.62,7.11,1.37,3.71,1.42-3.71,2.77-7.11h2.18l-6.43,15.52c-.81,1.86-2.01,2.77-3.71,2.77-.66,0-1.52-.13-2.34-.46l.58-1.65c.58,.2,1.14,.3,1.52,.3,.91,0,1.58-.41,2.11-1.65l.71-1.63-5.11-13.21h2.29Z"/><path class="f" d="M414.44,182.6c0,4.73-3,6.86-6.33,6.86-1.42,0-2.85-.38-3.81-.94v.69h-1.91v-18.8h2.08v6.2c.96-.53,2.21-.86,3.58-.86,3.28,0,6.38,2.13,6.38,6.86Zm-2.13,0c0-3.53-2.16-5-4.55-5-1.25,0-2.39,.28-3.3,.86v8.36c.94,.51,2.16,.79,3.35,.79,2.44,0,4.5-1.47,4.5-5Z"/><path class="f" d="M429.5,183.28h-9.96c.28,2.77,2.18,4.32,4.83,4.32,1.32,0,2.82-.3,4.01-.79l.53,1.65c-1.52,.63-2.97,.99-4.75,.99-3.79,0-6.73-2.49-6.73-6.86s3.2-6.86,6.33-6.86c3.4,0,5.82,2.49,5.82,6.38,0,.36-.03,.94-.08,1.17Zm-9.93-1.73h7.88c-.08-2.57-1.65-3.99-3.68-3.99-2.16,0-3.84,1.32-4.19,3.99Z"/><path class="f" d="M435.47,179.34v9.86h-2.08v-13.21h1.91v1.55c1.27-.84,3.28-1.58,4.8-1.8l.36,1.85c-1.58,.25-3.51,.89-4.98,1.75Z"/><path class="f" d="M461.53,171.8l-.76,1.8c-1.5-.66-3.2-1.02-4.7-1.02-2.44,0-3.76,.99-3.76,2.77s.97,2.69,4.19,3.58c4.34,1.19,5.97,2.84,5.97,5.41,0,3.1-2.39,5.16-6.45,5.16-2.08,0-4.37-.38-6.48-1.32l.76-1.8c1.88,.81,3.94,1.14,5.72,1.14,2.57,0,4.19-1.3,4.19-3.05,0-1.47-1.07-2.57-4.6-3.61-3.99-1.17-5.56-2.49-5.56-5.31,0-3,2.39-4.95,6.02-4.95,1.93,0,3.89,.38,5.46,1.19Z"/><path class="f" d="M477.58,183.28h-9.96c.28,2.77,2.18,4.32,4.83,4.32,1.32,0,2.82-.3,4.01-.79l.53,1.65c-1.52,.63-2.97,.99-4.75,.99-3.79,0-6.73-2.49-6.73-6.86s3.2-6.86,6.33-6.86c3.4,0,5.82,2.49,5.82,6.38,0,.36-.03,.94-.08,1.17Zm-9.93-1.73h7.88c-.08-2.57-1.65-3.99-3.68-3.99-2.16,0-3.84,1.32-4.19,3.99Z"/><path class="f" d="M491.55,176.8l-.69,1.58c-.97-.46-2.39-.79-3.48-.79-2.77,0-4.75,1.8-4.75,5s1.98,5,4.73,5c1.14,0,2.62-.33,3.58-.81l.69,1.57c-1.3,.71-2.74,1.09-4.5,1.09-3.63,0-6.61-2.46-6.61-6.86s2.97-6.86,6.63-6.86c1.68,0,3.15,.38,4.39,1.07Z"/><path class="f" d="M505.82,175.99v13.21h-1.91v-.92c-1.22,.71-2.82,1.17-4.45,1.17-1.52,0-2.64-.43-3.46-1.25-.92-.91-1.19-2.13-1.19-3.81v-8.41h2.08v8.21c0,2.29,1.22,3.46,3.07,3.46,1.25,0,2.54-.36,3.76-1.09v-10.57h2.08Z"/><path class="f" d="M512.58,179.34v9.86h-2.08v-13.21h1.91v1.55c1.27-.84,3.28-1.58,4.8-1.8l.36,1.85c-1.58,.25-3.51,.89-4.98,1.75Z"/><path class="f" d="M522.51,170.91v2.08h-2.08v-2.08h2.08Zm0,5.08v13.21h-2.08v-13.21h2.08Z"/><path class="f" d="M533.89,188.97c-.76,.3-1.83,.48-2.59,.48-.99,0-1.93-.25-2.54-.86-.61-.61-.89-1.47-.89-2.74v-8.05h-2.19v-1.8h2.19v-3.33h2.08v3.33h3.35v1.8h-3.35v7.83c0,1.42,.61,2.03,1.7,2.03,.61,0,1.27-.15,1.88-.33l.36,1.65Z"/><path class="f" d="M538.26,175.99l2.62,7.11,1.37,3.71,1.42-3.71,2.77-7.11h2.18l-6.43,15.52c-.81,1.86-2.01,2.77-3.71,2.77-.66,0-1.52-.13-2.34-.46l.58-1.65c.58,.2,1.14,.3,1.52,.3,.91,0,1.58-.41,2.11-1.65l.71-1.63-5.11-13.21h2.29Z"/><path class="f" d="M572.7,171.77l-.71,1.8c-1.27-.56-2.92-.94-4.65-.94-3.73,0-6.76,2.69-6.76,7.42s3.02,7.42,6.76,7.42c1.8,0,3.43-.38,4.78-.97l.69,1.78c-1.6,.79-3.46,1.22-5.56,1.22-4.78,0-8.94-3.58-8.94-9.45s4.17-9.45,8.94-9.45c2.16,0,3.94,.43,5.46,1.17Z"/><path class="f" d="M587.1,183.28h-9.96c.28,2.77,2.18,4.32,4.83,4.32,1.32,0,2.82-.3,4.01-.79l.53,1.65c-1.52,.63-2.97,.99-4.75,.99-3.79,0-6.73-2.49-6.73-6.86s3.2-6.86,6.33-6.86c3.4,0,5.82,2.49,5.82,6.38,0,.36-.03,.94-.08,1.17Zm-9.93-1.73h7.88c-.08-2.57-1.65-3.99-3.68-3.99-2.16,0-3.84,1.32-4.19,3.99Z"/><path class="f" d="M602.09,180.79v8.41h-2.08v-8.21c0-2.29-1.22-3.4-3.07-3.4-1.25,0-2.62,.36-3.86,1.09v10.52h-2.08v-13.21h1.91v.96c1.25-.74,2.92-1.22,4.55-1.22,1.52,0,2.64,.43,3.46,1.24,.92,.92,1.19,2.13,1.19,3.81Z"/><path class="f" d="M613.16,188.97c-.76,.3-1.83,.48-2.59,.48-.99,0-1.93-.25-2.54-.86-.61-.61-.89-1.47-.89-2.74v-8.05h-2.19v-1.8h2.19v-3.33h2.08v3.33h3.35v1.8h-3.35v7.83c0,1.42,.61,2.03,1.7,2.03,.61,0,1.27-.15,1.88-.33l.36,1.65Z"/><path class="f" d="M618.44,179.34v9.86h-2.08v-13.21h1.91v1.55c1.27-.84,3.28-1.58,4.8-1.8l.36,1.85c-1.58,.25-3.51,.89-4.98,1.75Z"/><path class="f" d="M637.04,183.28h-9.96c.28,2.77,2.18,4.32,4.83,4.32,1.32,0,2.82-.3,4.01-.79l.53,1.65c-1.52,.63-2.97,.99-4.75,.99-3.79,0-6.73-2.49-6.73-6.86s3.2-6.86,6.33-6.86c3.4,0,5.82,2.49,5.82,6.38,0,.36-.03,.94-.08,1.17Zm-9.93-1.73h7.88c-.08-2.57-1.65-3.99-3.68-3.99-2.16,0-3.84,1.32-4.19,3.99Z"/></g></g></g></g></g></svg>