<?xml version="1.0" encoding="UTF-8"?><svg xmlns="http://www.w3.org/2000/svg" viewBox="0 0 675.02 232.75"><defs><style>.e{fill:none;}.f{fill:#002c74;}.g{fill:#414042;}</style></defs><g id="a"/><g id="b"><g id="c"><g><rect class="e" width="675.02" height="232.75"/><g id="d"><path class="f" d="M514.03,87.2c-3.4,9.12-12.16,15.63-22.46,15.63s-19.07-6.51-22.46-15.63h-16.98c3.85,18.25,20.04,31.96,39.44,31.96s35.59-13.71,39.44-31.96h-16.98ZM38.46,40.49v14.75h23.61v62.17h14.74V55.23h22.85v-14.75H38.46Zm319.21,0l.04,76.7h15.32V40.48h-15.36Zm-244.48,0v13.11l27.97-.03c10.52,0,15,3.26,15,10.91,0,7.08-3.8,10.48-12.32,11.02h-30.65v41.69h15.9v-26.86h13.6l14.82,26.86h17.04l-14.77-26.86h39.5l-11.33,26.86h16.22l11.33-26.86h23.85l11.32,26.86h16.22l-11.32-26.86h31.39l.03,26.86h15.32v-26.86h31.08v-14.87l-84.09,.02-14.6-34.62h-16.22l14.6,34.62h-63.52c.77-1.54,2.4-5.23,2.4-11.42,0-15.86-9.84-23.57-30.07-23.57h-28.71Zm173.76,0v15.85l52.17-.04v-15.81h-52.17Zm319.67,0l-17.61,53.4-17.61-53.4h-19.42l-10.59,76.7h15.42l7.29-51.6,17.02,51.6h15.77l17.04-51.6,7.28,51.6h15.37l-10.59-76.7h-19.37Zm-154.88,32.47h16.61c2.63-10.39,12.02-18.09,23.23-18.09s20.6,7.7,23.23,18.09h16.61c-2.86-19.46-19.58-34.42-39.84-34.42s-36.98,14.96-39.84,34.42m-62.19,5.68c0,22.27,18.05,40.32,40.32,40.32,5.5,0,10.74-1.11,15.51-3.1l-8.28-14.34c-2.28,.72-4.71,1.11-7.23,1.11-13.25,0-23.99-10.74-23.99-23.99s10.74-23.99,23.99-23.99c2.54,0,4.99,.4,7.29,1.14l8.28-14.34c-4.79-2.01-10.05-3.12-15.57-3.12-22.27,0-40.32,18.05-40.32,40.32"/><g><path class="g" d="M308.83,139.21v16.39h8.74v1.91h-10.92v-18.29h2.19Z"/><path class="g" d="M323.28,139.21v2.08h-2.08v-2.08h2.08Zm0,5.08v13.21h-2.08v-13.21h2.08Z"/><path class="g" d="M330.03,139.21v2.08h-2.08v-2.08h2.08Zm0,5.08v13.21h-2.08v-13.21h2.08Z"/><path class="g" d="M339.41,151.32l-2.62,2.95v3.23h-2.08v-18.8h2.08v13.14l6.5-7.55h2.26l-4.78,5.61,5.18,7.6h-2.31l-4.24-6.17Z"/><path class="g" d="M359.47,151.58h-9.96c.28,2.77,2.18,4.32,4.83,4.32,1.32,0,2.82-.3,4.01-.79l.53,1.65c-1.52,.63-2.97,.99-4.75,.99-3.79,0-6.73-2.49-6.73-6.86s3.2-6.86,6.33-6.86c3.4,0,5.82,2.49,5.82,6.38,0,.36-.03,.94-.08,1.17Zm-9.93-1.73h7.88c-.08-2.57-1.65-3.99-3.68-3.99-2.16,0-3.84,1.32-4.19,3.99Z"/><path class="g" d="M374.38,149.09v8.41h-2.08v-8.21c0-2.29-1.22-3.4-3.07-3.4-1.25,0-2.62,.36-3.86,1.09v10.52h-2.08v-13.21h1.91v.96c1.25-.74,2.92-1.22,4.55-1.22,1.52,0,2.64,.43,3.46,1.24,.92,.92,1.19,2.13,1.19,3.81Z"/><path class="g" d="M390,149.09v8.41h-2.08v-8.21c0-2.29-1.22-3.4-3.07-3.4-1.25,0-2.62,.36-3.86,1.09v10.52h-2.08v-13.21h1.91v.96c1.25-.74,2.92-1.22,4.55-1.22,1.52,0,2.64,.43,3.46,1.24,.92,.92,1.19,2.13,1.19,3.81Z"/><path class="g" d="M405.75,151.58h-9.96c.28,2.77,2.18,4.32,4.83,4.32,1.32,0,2.82-.3,4.01-.79l.53,1.65c-1.52,.63-2.97,.99-4.75,.99-3.79,0-6.73-2.49-6.73-6.86s3.2-6.86,6.33-6.86c3.4,0,5.82,2.49,5.82,6.38,0,.36-.03,.94-.08,1.17Zm-9.93-1.73h7.88c-.08-2.57-1.65-3.99-3.68-3.99-2.16,0-3.84,1.32-4.19,3.99Z"/><path class="g" d="M415.05,148.71v1.83h-6.17v-1.83h6.17Z"/><path class="g" d="M427.39,161.64c-.61,.61-1.47,.94-2.62,.94-.76,0-1.6-.15-2.24-.43l.43-1.6c.48,.15,.97,.23,1.52,.23,1.14,0,1.75-.56,1.75-2.24v-14.25h2.08v14.38c0,1.4-.31,2.34-.94,2.97Zm.94-22.43v2.08h-2.08v-2.08h2.08Z"/><path class="g" d="M443.11,157.4v.1h-2.03c-.1-.28-.2-.53-.25-.81-1.04,.61-2.74,1.07-4.06,1.07-3.02,0-4.75-1.45-4.75-4.17,0-2.49,2.13-4.17,5.67-4.17,1.19,0,1.98,.08,2.79,.2v-.56c0-2.19-1.22-3.18-3.25-3.18-1.3,0-2.64,.23-3.96,.71l-.63-1.6c1.68-.66,3.2-.96,4.75-.96,1.93,0,3.12,.51,3.96,1.32,.86,.86,1.19,2.03,1.19,3.53v4.57c0,1.24,.13,2.67,.58,3.94Zm-6.1-1.47c1.17,0,2.46-.28,3.46-.84v-3.81c-.86-.15-1.4-.23-2.74-.23-2.41,0-3.58,.97-3.58,2.54s.99,2.34,2.87,2.34Z"/><path class="g" d="M455.02,144.29l2.51,6.61,1.55,4.12,1.5-4.12,2.49-6.61h2.18l-5.18,13.21h-2.11l-5.23-13.21h2.29Z"/><path class="g" d="M470.39,139.21v2.08h-2.08v-2.08h2.08Zm0,5.08v13.21h-2.08v-13.21h2.08Z"/><path class="g" d="M486.24,151.58h-9.96c.28,2.77,2.18,4.32,4.83,4.32,1.32,0,2.82-.3,4.01-.79l.53,1.65c-1.52,.63-2.97,.99-4.75,.99-3.79,0-6.73-2.49-6.73-6.86s3.2-6.86,6.33-6.86c3.4,0,5.82,2.49,5.82,6.38,0,.36-.03,.94-.08,1.17Zm-9.93-1.73h7.88c-.08-2.57-1.65-3.99-3.68-3.99-2.16,0-3.84,1.32-4.19,3.99Z"/><path class="g" d="M498.28,144.87l-.58,1.63c-1.17-.43-2.31-.69-3.71-.69-1.68,0-2.72,.66-2.72,1.7s.51,1.68,2.87,2.29c3.66,.94,4.98,2.08,4.98,4.12,0,2.34-2.01,3.84-5.39,3.84-1.68,0-3.38-.33-5.03-.86l.58-1.63c1.45,.46,3,.71,4.45,.71,2.21,0,3.33-.71,3.33-1.96,0-.97-.84-1.73-3.58-2.41-3.33-.84-4.27-2.06-4.27-3.91,0-2.08,1.83-3.66,4.78-3.66,1.68,0,2.95,.33,4.29,.84Z"/><path class="g" d="M509.38,157.27c-.76,.3-1.83,.48-2.59,.48-.99,0-1.93-.25-2.54-.86-.61-.61-.89-1.47-.89-2.74v-8.05h-2.19v-1.8h2.19v-3.33h2.08v3.33h3.35v1.8h-3.35v7.83c0,1.42,.61,2.03,1.7,2.03,.61,0,1.27-.15,1.88-.33l.36,1.65Z"/><path class="g" d="M514.64,139.21v2.08h-2.08v-2.08h2.08Zm0,5.08v13.21h-2.08v-13.21h2.08Z"/><path class="g" d="M530.33,149.09v8.41h-2.08v-8.21c0-2.29-1.22-3.4-3.07-3.4-1.25,0-2.62,.36-3.86,1.09v10.52h-2.08v-13.21h1.91v.96c1.25-.74,2.92-1.22,4.55-1.22,1.52,0,2.64,.43,3.46,1.24,.92,.92,1.19,2.13,1.19,3.81Z"/><path class="g" d="M541.36,157.27c-.76,.3-1.83,.48-2.59,.48-.99,0-1.93-.25-2.54-.86-.61-.61-.89-1.47-.89-2.74v-8.05h-2.19v-1.8h2.19v-3.33h2.08v3.33h3.35v1.8h-3.35v7.83c0,1.42,.61,2.03,1.7,2.03,.61,0,1.27-.15,1.88-.33l.36,1.65Z"/><path class="g" d="M554.82,157.4v.1h-2.03c-.1-.28-.2-.53-.25-.81-1.04,.61-2.74,1.07-4.06,1.07-3.02,0-4.75-1.45-4.75-4.17,0-2.49,2.13-4.17,5.67-4.17,1.19,0,1.98,.08,2.79,.2v-.56c0-2.19-1.22-3.18-3.25-3.18-1.3,0-2.64,.23-3.96,.71l-.63-1.6c1.68-.66,3.2-.96,4.75-.96,1.93,0,3.12,.51,3.96,1.32,.86,.86,1.19,2.03,1.19,3.53v4.57c0,1.24,.13,2.67,.58,3.94Zm-7.47-16.11h-2.08v-2.08h2.08v2.08Zm1.37,14.63c1.17,0,2.46-.28,3.46-.84v-3.81c-.86-.15-1.4-.23-2.74-.23-2.41,0-3.58,.97-3.58,2.54s.99,2.34,2.87,2.34Zm4.73-14.63h-2.08v-2.08h2.08v2.08Z"/><path class="g" d="M558.91,144.29l2.51,6.61,1.55,4.12,1.5-4.12,2.49-6.61h2.18l-5.18,13.21h-2.11l-5.23-13.21h2.29Z"/><path class="g" d="M574.25,139.21v2.08h-2.08v-2.08h2.08Zm0,5.08v13.21h-2.08v-13.21h2.08Z"/><path class="g" d="M580.95,147.64v9.86h-2.08v-13.21h1.91v1.55c1.27-.84,3.28-1.58,4.8-1.8l.36,1.85c-1.58,.25-3.51,.89-4.98,1.75Z"/><path class="g" d="M598.94,157.4v.1h-2.03c-.1-.28-.2-.53-.25-.81-1.04,.61-2.74,1.07-4.06,1.07-3.02,0-4.75-1.45-4.75-4.17,0-2.49,2.13-4.17,5.67-4.17,1.19,0,1.98,.08,2.79,.2v-.56c0-2.19-1.22-3.18-3.25-3.18-1.3,0-2.64,.23-3.96,.71l-.63-1.6c1.68-.66,3.2-.96,4.75-.96,1.93,0,3.12,.51,3.96,1.32,.86,.86,1.19,2.03,1.19,3.53v4.57c0,1.24,.13,2.67,.58,3.94Zm-6.1-1.47c1.17,0,2.46-.28,3.46-.84v-3.81c-.86-.15-1.4-.23-2.74-.23-2.41,0-3.58,.97-3.58,2.54s.99,2.34,2.87,2.34Z"/><path class="g" d="M611.41,144.87l-.58,1.63c-1.17-.43-2.31-.69-3.71-.69-1.68,0-2.72,.66-2.72,1.7s.51,1.68,2.87,2.29c3.66,.94,4.98,2.08,4.98,4.12,0,2.34-2.01,3.84-5.39,3.84-1.68,0-3.38-.33-5.03-.86l.58-1.63c1.45,.46,3,.71,4.45,.71,2.21,0,3.33-.71,3.33-1.96,0-.97-.84-1.73-3.58-2.41-3.33-.84-4.27-2.06-4.27-3.91,0-2.08,1.83-3.66,4.78-3.66,1.68,0,2.95,.33,4.29,.84Z"/><path class="g" d="M622.51,157.27c-.76,.3-1.83,.48-2.59,.48-.99,0-1.93-.25-2.54-.86-.61-.61-.89-1.47-.89-2.74v-8.05h-2.19v-1.8h2.19v-3.33h2.08v3.33h3.35v1.8h-3.35v7.83c0,1.42,.61,2.03,1.7,2.03,.61,0,1.27-.15,1.88-.33l.36,1.65Z"/><path class="g" d="M637.34,150.89c0,4.09-2.9,6.86-6.53,6.86s-6.53-2.77-6.53-6.86,2.9-6.86,6.53-6.86,6.53,2.77,6.53,6.86Zm-2.13,0c0-3.12-1.85-5-4.39-5s-4.4,1.88-4.4,5,1.85,5,4.4,5,4.39-1.88,4.39-5Z"/></g><g><path class="g" d="M349.19,180.44l-2.31,2.57v6.2h-2.19v-18.29h2.19v9.55l8.69-9.55h2.49l-7.42,8.08,7.95,10.21h-2.57l-6.83-8.76Z"/><path class="g" d="M361,175.99l2.62,7.11,1.37,3.71,1.42-3.71,2.77-7.11h2.18l-6.43,15.52c-.81,1.86-2.01,2.77-3.71,2.77-.66,0-1.52-.13-2.34-.46l.59-1.65c.58,.2,1.14,.3,1.52,.3,.91,0,1.58-.41,2.11-1.65l.71-1.63-5.11-13.21h2.29Z"/><path class="g" d="M386.5,182.6c0,4.73-3,6.86-6.33,6.86-1.42,0-2.85-.38-3.81-.94v.69h-1.91v-18.8h2.08v6.2c.96-.53,2.21-.86,3.58-.86,3.28,0,6.38,2.13,6.38,6.86Zm-2.13,0c0-3.53-2.16-5-4.55-5-1.24,0-2.39,.28-3.3,.86v8.36c.94,.51,2.16,.79,3.35,.79,2.44,0,4.5-1.47,4.5-5Z"/><path class="g" d="M401.56,183.28h-9.96c.28,2.77,2.19,4.32,4.83,4.32,1.32,0,2.82-.3,4.01-.79l.53,1.65c-1.52,.63-2.97,.99-4.75,.99-3.79,0-6.73-2.49-6.73-6.86s3.2-6.86,6.33-6.86c3.4,0,5.82,2.49,5.82,6.38,0,.36-.03,.94-.08,1.17Zm-9.93-1.73h7.88c-.08-2.57-1.65-3.99-3.68-3.99-2.16,0-3.84,1.32-4.19,3.99Z"/><path class="g" d="M407.5,179.35v9.86h-2.08v-13.21h1.91v1.55c1.27-.84,3.28-1.58,4.8-1.8l.36,1.85c-1.58,.25-3.51,.89-4.98,1.75Z"/><path class="g" d="M422.72,188.97c-.76,.3-1.83,.48-2.59,.48-.99,0-1.93-.25-2.54-.86-.61-.61-.89-1.47-.89-2.74v-8.05h-2.19v-1.8h2.19v-3.33h2.08v3.33h3.35v1.8h-3.35v7.83c0,1.42,.61,2.03,1.7,2.03,.61,0,1.27-.15,1.88-.33l.36,1.65Z"/><path class="g" d="M436.56,175.99v13.21h-1.9v-.92c-1.22,.71-2.82,1.17-4.45,1.17-1.52,0-2.64-.43-3.46-1.25-.91-.91-1.19-2.13-1.19-3.81v-8.41h2.08v8.21c0,2.29,1.22,3.46,3.07,3.46,1.25,0,2.54-.36,3.76-1.09v-10.57h2.08Z"/><path class="g" d="M443.32,179.35v9.86h-2.08v-13.21h1.91v1.55c1.27-.84,3.28-1.58,4.8-1.8l.36,1.85c-1.58,.25-3.51,.89-4.98,1.75Z"/><path class="g" d="M452.41,175.99l2.51,6.61,1.55,4.12,1.5-4.12,2.49-6.61h2.19l-5.18,13.21h-2.11l-5.23-13.21h2.29Z"/><path class="g" d="M475.96,189.1v.1h-2.03c-.1-.28-.2-.53-.25-.81-1.04,.61-2.74,1.07-4.06,1.07-3.02,0-4.75-1.45-4.75-4.17,0-2.49,2.13-4.17,5.66-4.17,1.2,0,1.98,.08,2.79,.2v-.56c0-2.19-1.22-3.18-3.25-3.18-1.29,0-2.64,.23-3.96,.71l-.63-1.6c1.68-.66,3.2-.96,4.75-.96,1.93,0,3.12,.51,3.96,1.32,.87,.86,1.2,2.03,1.2,3.53v4.57c0,1.24,.13,2.67,.58,3.94Zm-6.1-1.47c1.17,0,2.46-.28,3.46-.84v-3.81c-.86-.15-1.4-.23-2.74-.23-2.41,0-3.58,.97-3.58,2.54s.99,2.34,2.87,2.34Z"/><path class="g" d="M482.1,170.4v18.8h-2.08v-18.8h2.08Z"/><path class="g" d="M488.93,170.4v18.8h-2.08v-18.8h2.08Z"/><path class="g" d="M495.77,170.91v2.08h-2.08v-2.08h2.08Zm0,5.08v13.21h-2.08v-13.21h2.08Z"/><path class="g" d="M508.82,176.58l-.58,1.63c-1.17-.43-2.31-.69-3.71-.69-1.68,0-2.72,.66-2.72,1.7s.51,1.68,2.87,2.29c3.66,.94,4.98,2.08,4.98,4.12,0,2.34-2.01,3.84-5.38,3.84-1.68,0-3.38-.33-5.03-.86l.58-1.63c1.45,.46,3,.71,4.45,.71,2.21,0,3.33-.71,3.33-1.96,0-.97-.84-1.73-3.58-2.41-3.33-.84-4.27-2.06-4.27-3.91,0-2.08,1.83-3.66,4.78-3.66,1.68,0,2.95,.33,4.29,.84Z"/><path class="g" d="M524.01,175.99v13.21h-1.9v-.92c-1.22,.71-2.82,1.17-4.45,1.17-1.52,0-2.64-.43-3.46-1.25-.91-.91-1.19-2.13-1.19-3.81v-8.41h2.08v8.21c0,2.29,1.22,3.46,3.07,3.46,1.25,0,2.54-.36,3.76-1.09v-10.57h2.08Z"/><path class="g" d="M539.61,175.99v13.21h-1.91v-.92c-1.22,.71-2.82,1.17-4.45,1.17-1.53,0-2.64-.43-3.46-1.25-.92-.91-1.2-2.13-1.2-3.81v-8.41h2.08v8.21c0,2.29,1.22,3.46,3.07,3.46,1.24,0,2.54-.36,3.76-1.09v-10.57h2.08Z"/><path class="g" d="M552.58,176.58l-.58,1.63c-1.17-.43-2.31-.69-3.71-.69-1.68,0-2.72,.66-2.72,1.7s.51,1.68,2.87,2.29c3.66,.94,4.98,2.08,4.98,4.12,0,2.34-2.01,3.84-5.39,3.84-1.68,0-3.38-.33-5.03-.86l.58-1.63c1.45,.46,3,.71,4.45,.71,2.21,0,3.33-.71,3.33-1.96,0-.97-.84-1.73-3.58-2.41-3.33-.84-4.27-2.06-4.27-3.91,0-2.08,1.83-3.66,4.78-3.66,1.68,0,2.95,.33,4.29,.84Z"/><path class="g" d="M561.68,183.03l-2.62,2.95v3.23h-2.08v-18.8h2.08v13.14l6.5-7.55h2.26l-4.78,5.61,5.18,7.6h-2.31l-4.24-6.17Z"/><path class="g" d="M581.82,183.28h-9.96c.28,2.77,2.18,4.32,4.83,4.32,1.32,0,2.82-.3,4.01-.79l.54,1.65c-1.53,.63-2.97,.99-4.75,.99-3.79,0-6.73-2.49-6.73-6.86s3.2-6.86,6.33-6.86c3.4,0,5.82,2.49,5.82,6.38,0,.36-.03,.94-.08,1.17Zm-9.93-1.73h7.88c-.08-2.57-1.65-3.99-3.68-3.99-2.16,0-3.84,1.32-4.19,3.99Z"/><path class="g" d="M593.93,176.58l-.58,1.63c-1.17-.43-2.31-.69-3.71-.69-1.68,0-2.72,.66-2.72,1.7s.51,1.68,2.87,2.29c3.66,.94,4.98,2.08,4.98,4.12,0,2.34-2.01,3.84-5.39,3.84-1.68,0-3.38-.33-5.03-.86l.58-1.63c1.45,.46,3,.71,4.45,.71,2.21,0,3.33-.71,3.33-1.96,0-.97-.84-1.73-3.58-2.41-3.33-.84-4.27-2.06-4.27-3.91,0-2.08,1.83-3.66,4.78-3.66,1.68,0,2.95,.33,4.29,.84Z"/><path class="g" d="M603.03,183.03l-2.62,2.95v3.23h-2.08v-18.8h2.08v13.14l6.5-7.55h2.26l-4.78,5.61,5.18,7.6h-2.31l-4.24-6.17Z"/><path class="g" d="M623.37,175.99v13.21h-1.9v-.92c-1.22,.71-2.82,1.17-4.45,1.17-1.52,0-2.64-.43-3.46-1.25-.91-.91-1.19-2.13-1.19-3.81v-8.41h2.08v8.21c0,2.29,1.22,3.46,3.07,3.46,1.25,0,2.54-.36,3.76-1.09v-10.57h2.08Z"/><path class="g" d="M636.35,176.58l-.58,1.63c-1.17-.43-2.31-.69-3.71-.69-1.68,0-2.72,.66-2.72,1.7s.51,1.68,2.87,2.29c3.66,.94,4.98,2.08,4.98,4.12,0,2.34-2.01,3.84-5.38,3.84-1.68,0-3.38-.33-5.03-.86l.58-1.63c1.45,.46,3,.71,4.45,.71,2.21,0,3.33-.71,3.33-1.96,0-.97-.84-1.73-3.58-2.41-3.33-.84-4.27-2.06-4.27-3.91,0-2.08,1.83-3.66,4.78-3.66,1.68,0,2.95,.33,4.29,.84Z"/></g></g></g></g></g></svg>